<svg width="183" height="153" viewBox="0 0 183 153" fill="none" xmlns="http://www.w3.org/2000/svg">
<path d="M114.838 57.7033L178.83 23.3032L75.6299 0L19.0361 24.6549L106.331 45.8667L114.838 57.7033Z" fill="#7B2CFF"/>
<path d="M118.835 147.834L180.955 115.009C181.699 114.616 182.157 113.834 182.137 112.992L179.999 26.0568C179.958 24.4043 178.19 23.3746 176.733 24.1547L116.751 56.2628C116.029 56.649 115.579 57.401 115.579 58.2194V145.872C115.579 147.543 117.357 148.615 118.835 147.834Z" fill="#8D49FF" stroke="#7B2CFF" stroke-width="1.47957"/>
<path d="M0.911582 19.9987V114.131C0.911582 116.093 2.19915 117.822 4.07849 118.384L116.631 152.044C118.873 152.715 121.127 151.036 121.127 148.697V57.7029V47.0527C121.127 45.005 119.726 43.223 117.736 42.7395L33.2669 22.2143L6.39836 15.6855C3.60407 15.0065 0.911582 17.1231 0.911582 19.9987Z" fill="#8D49FF" stroke="#7B2CFF" stroke-width="1.47957"/>
<path d="M12.0088 107.646V34.5923C12.0088 33.634 12.9058 32.9286 13.837 33.1544L37.279 38.8386L106.31 55.5775C106.974 55.7384 107.441 56.3325 107.441 57.0154V61.2809V134.263V135.244C107.441 136.234 106.487 136.945 105.538 136.662L13.0652 109.064C12.4384 108.877 12.0088 108.301 12.0088 107.646Z" fill="#995CFF"/>
<path d="M24.585 52.8945L89.3162 68.43" stroke="#7B2CFF" stroke-width="10.357"/>
</svg>
