<?xml version="1.0" encoding="UTF-8"?>
<svg version="1.1" xmlns="http://www.w3.org/2000/svg" width="228" height="1073">
<path d="M0 0 C6.87950547 3.13461338 9.75816354 10.42693342 12.30908203 17.10449219 C18.28688483 33.50437238 20.45126653 50.81284939 23 68 C23.15033691 67.43192627 23.30067383 66.86385254 23.45556641 66.27856445 C26.46765314 55.01682068 29.57010995 44.3609713 35 34 C35.46019531 33.07316406 35.92039062 32.14632812 36.39453125 31.19140625 C41.95644687 20.38933872 51.10311594 4.6432499 63 0 C67.6309068 -0.7998839 71.0486586 -0.52230508 75.1875 1.75 C94.33760579 20.7943041 94.0679937 61.85875304 97 87 C97.09704224 86.14172607 97.09704224 86.14172607 97.19604492 85.26611328 C100.73995136 54.79155993 109.98160503 22.22656529 135 2 C137.83502906 0.28553579 140.06780825 -0.33886446 143.375 -0.4375 C144.10460937 -0.47746094 144.83421875 -0.51742188 145.5859375 -0.55859375 C150.41159574 0.55802296 153.28577629 3.93944246 155.94140625 7.8828125 C167.76365552 31.52731104 169.99206341 59.09072797 173 85 C173.66 80.71 174.32 76.42 175 72 C175.33 72 175.66 72 176 72 C176 401.01 176 730.02 176 1069 C100.76 1069 25.52 1069 -52 1069 C-52 745.27 -52 421.54 -52 88 C-51.34 88 -50.68 88 -50 88 C-49.96261719 87.01902344 -49.92523438 86.03804688 -49.88671875 85.02734375 C-48.57897273 56.13771689 -38.28249794 27.1710193 -17.4375 6.453125 C-11.66581215 1.23640713 -7.96366796 -1.28361753 0 0 Z M-8 31 C-21.14066972 47.61555807 -26.19957013 67.18882341 -27 88 C-17.43 88 -7.86 88 2 88 C0.60647229 74.06472288 -0.91618084 60.31710309 -3.5625 46.5625 C-3.77221436 45.46244629 -3.98192871 44.36239258 -4.19799805 43.22900391 C-5.44796242 36.89286019 -5.44796242 36.89286019 -8 31 Z M63 31 C52.09720254 49.43784193 45 66.22434607 45 88 C54.57 88 64.14 88 74 88 C71.32076571 65.49073943 71.32076571 65.49073943 67.375 43.1875 C67.16915283 42.18138672 66.96330566 41.17527344 66.7512207 40.13867188 C65.8515908 35.07191679 65.8515908 35.07191679 63 31 Z M139 32 C126.71485084 47.99854437 121 68.05976951 121 88 C130.57 88 140.14 88 150 88 C148.03438915 69.17151712 145.73337054 50.37189584 141 32 C140.34 32 139.68 32 139 32 Z " fill="#F8EE67" transform="translate(52,4)"/>
<path d="M0 0 C6.87950547 3.13461338 9.75816354 10.42693342 12.30908203 17.10449219 C18.28688483 33.50437238 20.45126653 50.81284939 23 68 C23.15033691 67.43192627 23.30067383 66.86385254 23.45556641 66.27856445 C26.46765314 55.01682068 29.57010995 44.3609713 35 34 C35.46019531 33.07316406 35.92039062 32.14632812 36.39453125 31.19140625 C41.95644687 20.38933872 51.10311594 4.6432499 63 0 C67.6309068 -0.7998839 71.0486586 -0.52230508 75.1875 1.75 C94.33760579 20.7943041 94.0679937 61.85875304 97 87 C97.09704224 86.14172607 97.09704224 86.14172607 97.19604492 85.26611328 C100.73995136 54.79155993 109.98160503 22.22656529 135 2 C137.83502906 0.28553579 140.06780825 -0.33886446 143.375 -0.4375 C144.10460937 -0.47746094 144.83421875 -0.51742188 145.5859375 -0.55859375 C150.41159574 0.55802296 153.28577629 3.93944246 155.94140625 7.8828125 C167.76365552 31.52731104 169.99206341 59.09072797 173 85 C173.66 80.71 174.32 76.42 175 72 C175.33 72 175.66 72 176 72 C176 82.23 176 92.46 176 103 C175.67 102.34 175.34 101.68 175 101 C157.51 101 140.02 101 122 101 C125.28494202 118.5196908 129.82316044 133.84235397 137 150 C137.42152344 150.96679688 137.84304687 151.93359375 138.27734375 152.9296875 C140.73297843 157.97324695 142.99276259 159.94680959 148.1328125 162.12890625 C151.13241787 163.52830373 152.4046472 165.12836497 154 168 C155.17977985 172.42417444 155.36714443 175.87696999 153.9375 180.25 C151.63103246 183.52369586 149.6492918 186.27100086 146 188 C140.89374925 188.87383755 136.53232355 188.5782353 131.6875 186.75 C128.34513121 183.3299017 126.68571049 179.82686121 124.6875 175.5078125 C123.19743228 172.4104032 121.57903723 169.51068408 119.82836914 166.56079102 C107.79184673 146.13759689 100.96637775 124.59653297 99 101 C81.51 101 64.02 101 46 101 C48.18568841 115.42044115 48.18568841 115.42044115 52.1875 129.0625 C52.48358154 129.87904053 52.77966309 130.69558105 53.0847168 131.53686523 C58.1740962 147.56672048 58.1740962 147.56672048 67.8046875 159.95703125 C68.48789063 160.23933594 69.17109375 160.52164063 69.875 160.8125 C74.04007687 162.8344555 76.06746769 164.6518023 78 169 C78.63994209 173.58257384 78.5684133 177.54738823 76.875 181.875 C73.85897657 185.29315988 71.22938686 187.64112309 66.59765625 188.38671875 C60.75383492 188.64156209 57.65491418 187.79726644 53 184 C51.52001131 181.74709652 50.34232773 179.71472997 49.1875 177.3125 C48.50481764 175.95527036 47.82118848 174.59851663 47.13671875 173.2421875 C46.78786621 172.54061523 46.43901367 171.83904297 46.07958984 171.11621094 C45.02486996 169.04875008 43.91254948 167.02759179 42.76953125 165.0078125 C31.566121 145.05898158 24.75267719 123.78480341 23 101 C6.83 101 -9.34 101 -26 101 C-22.28898346 120.7920882 -17.26355616 139.0497682 -6.84765625 156.3984375 C-6 158 -6 158 -6 160 C-5.29875 160.061875 -4.5975 160.12375 -3.875 160.1875 C0.57440111 161.44493944 3.65569617 164.16685841 6.375 167.875 C7.65854656 172.23905829 7.40631302 175.87135273 5.875 180.125 C3.66141146 183.51916909 1.69479955 186.26039619 -2 188 C-6.95327075 188.77099368 -11.35323558 188.68615184 -16 186.75 C-19.04272967 184.08761154 -20.66229154 181.82453495 -22.203125 178.0625 C-23.55542583 174.85772094 -25.13964285 171.84182728 -26.8203125 168.796875 C-38.00116348 148.45294869 -49 124.78807976 -49 101 C-49.99 101 -50.98 101 -52 101 C-52 96.71 -52 92.42 -52 88 C-51.34 88 -50.68 88 -50 88 C-49.96261719 87.01902344 -49.92523438 86.03804688 -49.88671875 85.02734375 C-48.57897273 56.13771689 -38.28249794 27.1710193 -17.4375 6.453125 C-11.66581215 1.23640713 -7.96366796 -1.28361753 0 0 Z M-8 31 C-21.14066972 47.61555807 -26.19957013 67.18882341 -27 88 C-17.43 88 -7.86 88 2 88 C0.60647229 74.06472288 -0.91618084 60.31710309 -3.5625 46.5625 C-3.77221436 45.46244629 -3.98192871 44.36239258 -4.19799805 43.22900391 C-5.44796242 36.89286019 -5.44796242 36.89286019 -8 31 Z M63 31 C52.09720254 49.43784193 45 66.22434607 45 88 C54.57 88 64.14 88 74 88 C71.32076571 65.49073943 71.32076571 65.49073943 67.375 43.1875 C67.16915283 42.18138672 66.96330566 41.17527344 66.7512207 40.13867188 C65.8515908 35.07191679 65.8515908 35.07191679 63 31 Z M139 32 C126.71485084 47.99854437 121 68.05976951 121 88 C130.57 88 140.14 88 150 88 C148.03438915 69.17151712 145.73337054 50.37189584 141 32 C140.34 32 139.68 32 139 32 Z " fill="#040403" transform="translate(52,4)"/>
<path d="M0 0 C5.68624639 1.32238288 7.67754016 3.44348364 11 8 C12.53597454 11.07194908 12.2265038 13.60244293 12 17 C10.28176592 21.77287246 7.68713878 25.79317812 3 28 C-1.95327075 28.77099368 -6.35323558 28.68615184 -11 26.75 C-13.06771757 24.94074713 -14.64965322 23.4006165 -16 21 C-15.505 19.515 -15.505 19.515 -15 18 C-14.505 18.495 -14.01 18.99 -13.5 19.5 C-10.0456691 21.57259854 -6.88479264 21.57152019 -3 21 C-0.0908466 19.73515069 1.46015566 18.74549933 3.3125 16.1875 C4.24508259 13.22019177 4.37237901 11.10315844 4 8 C2.07706482 4.78170896 2.07706482 4.78170896 0 2 C0 1.34 0 0.68 0 0 Z " fill="#595959" transform="translate(47,164)"/>
<path d="M0 0 C4.42063018 1.02805353 7.23814505 2.47864507 10.01953125 6.16015625 C11.87403403 9.64011963 12.23147679 13.09996673 12 17 C10.63334321 21.18036195 8.45884284 24.3617939 4.9375 27.08203125 C0.81249041 29.03642087 -3.58561631 28.72151888 -8 28 C-11.91075925 26.01031547 -13.57689098 24.63466354 -16 21 C-15.505 19.515 -15.505 19.515 -15 18 C-14.505 18.495 -14.01 18.99 -13.5 19.5 C-10.0456691 21.57259854 -6.88479264 21.57152019 -3 21 C-0.0908466 19.73515069 1.46015566 18.74549933 3.3125 16.1875 C4.24508259 13.22019177 4.37237901 11.10315844 4 8 C2.07706482 4.78170896 2.07706482 4.78170896 0 2 C0 1.34 0 0.68 0 0 Z " fill="#5A5A59" transform="translate(195,164)"/>
<path d="M0 0 C4.43970742 1.39533662 6.90515679 3.56128532 10 7 C11.84593445 10.69186889 11.34449699 14.96172979 11 19 C9.1987497 23.60319521 6.40608743 25.83701163 2 28 C-3.04444853 28.81203318 -6.83016898 28.57428068 -11.4375 26.3125 C-13.9923719 24.0068839 -15.59627325 22.13774214 -17 19 C-16.67 18.34 -16.34 17.68 -16 17 C-15.34 17.66 -14.68 18.32 -14 19 C-9.89904016 21.73397322 -7.8733966 21.46413301 -3 21 C0.4203866 19.82986774 0.91540482 19.12689277 3 16 C3.35420761 13.62392133 3.35420761 13.62392133 3.3125 11.0625 C3.32925781 10.20785156 3.34601563 9.35320312 3.36328125 8.47265625 C2.93316594 5.54509722 1.84772115 4.25724246 0 2 C0 1.34 0 0.68 0 0 Z " fill="#575758" transform="translate(119,164)"/>
<path d="M0 0 C0.886875 0.61875 1.77375 1.2375 2.6875 1.875 C5.46061184 3.65397741 7.9140354 4.91083602 11 6 C10.01 6.495 10.01 6.495 9 7 C8.67 7.66 8.34 8.32 8 9 C6.25 8.875 6.25 8.875 4 8 C0 2.77777778 0 2.77777778 0 0 Z " fill="#5F5E5B" transform="translate(102,181)"/>
</svg>
