<svg width="60" height="55" viewBox="0 0 60 55" fill="none" xmlns="http://www.w3.org/2000/svg">
<path d="M3.25635 29.8608C3.25635 29.6026 3.30724 29.3469 3.4061 29.1084L12.3169 7.61221C13.109 5.70147 15.9357 6.15451 16.0909 8.21708L17.2341 23.404C17.2598 23.7462 17.1955 24.0891 17.0476 24.3987L6.9936 45.4353C6.09143 47.323 3.25635 46.6804 3.25635 44.5882V29.8608Z" fill="#8D49FF"/>
<rect x="12.0966" y="4.91165" width="45.1869" height="26.5227" rx="4.0794" fill="#8D49FF" stroke="white" stroke-width="1.30976"/>
<rect x="18.0391" y="9.80176" width="29.4053" height="23.1678" rx="2.85376" fill="#D9D9D9"/>
<rect x="19.8213" y="8.01965" width="11.4604" height="3.92929" rx="1.96465" fill="#5427A0"/>
<path d="M48.1983 27.7312C48.1487 27.8983 48.1262 28.0724 48.1315 28.2467L48.7523 48.4548C48.8092 50.3046 51.4105 50.6543 51.9538 48.8851L58.5715 27.3375C58.6315 27.1422 58.6544 26.9375 58.639 26.7339L57.2535 8.32612C57.117 6.51272 54.568 6.2402 54.0512 7.98376L48.1983 27.7312Z" fill="#8D49FF" stroke="white" stroke-width="1.30976"/>
<rect x="14.7222" y="32.6461" width="22.7171" height="4.21704" rx="1.71226" fill="#5427A0"/>
<rect x="1.34512" y="26.8501" width="49.7174" height="24.5957" rx="4.0794" fill="#8D49FF" stroke="white" stroke-width="1.30976"/>
<rect x="15" y="33" width="22" height="5" rx="2.5" fill="#5427A0"/>
</svg>
