<?xml version="1.0" encoding="UTF-8"?>
<svg xmlns="http://www.w3.org/2000/svg" xmlns:xlink="http://www.w3.org/1999/xlink" width="240px" height="335px" viewBox="0 0 240 335" version="1.1">
<g id="surface1">
<path style=" stroke:none;fill-rule:nonzero;fill:rgb(0%,52.941179%,71.372551%);fill-opacity:1;" d="M 143.15625 0 C 144.546875 0 145.9375 0 147.367188 0 C 147.367188 76.460938 147.367188 152.925781 147.367188 231.703125 C 147.914062 231.800781 148.460938 231.902344 149.023438 232.003906 C 149.46875 232.101562 149.914062 232.199219 150.355469 232.300781 C 150.480469 232.332031 150.605469 232.359375 150.734375 232.390625 C 151.144531 232.484375 151.554688 232.578125 151.964844 232.675781 C 152.261719 232.742188 152.5625 232.8125 152.859375 232.882812 C 153.671875 233.070312 154.484375 233.257812 155.296875 233.445312 C 156.167969 233.648438 157.039062 233.847656 157.910156 234.050781 C 159.398438 234.394531 160.882812 234.738281 162.371094 235.082031 C 164.429688 235.558594 166.492188 236.035156 168.550781 236.511719 C 172.160156 237.347656 175.769531 238.183594 179.378906 239.019531 C 181.871094 239.59375 184.359375 240.171875 186.847656 240.746094 C 187.417969 240.878906 187.984375 241.007812 188.554688 241.140625 C 190.246094 241.53125 191.941406 241.925781 193.632812 242.316406 C 194.566406 242.53125 195.503906 242.746094 196.4375 242.964844 C 196.714844 243.027344 196.714844 243.027344 197 243.09375 C 199.742188 243.726562 202.488281 244.367188 205.230469 245.007812 C 205.980469 245.179688 206.734375 245.355469 207.484375 245.53125 C 207.589844 245.554688 207.695312 245.578125 207.800781 245.605469 C 208.324219 245.726562 208.851562 245.847656 209.375 245.972656 C 210.492188 246.230469 211.613281 246.492188 212.734375 246.753906 C 213.582031 246.953125 214.429688 247.148438 215.277344 247.347656 C 215.625 247.429688 215.972656 247.507812 216.320312 247.589844 C 216.796875 247.703125 217.269531 247.8125 217.746094 247.921875 C 217.886719 247.957031 218.023438 247.988281 218.164062 248.023438 C 219.285156 248.277344 220.1875 248.328125 221.292969 247.945312 C 221.472656 247.886719 221.652344 247.824219 221.835938 247.761719 C 222.113281 247.664062 222.113281 247.664062 222.398438 247.566406 C 222.585938 247.5 222.777344 247.4375 222.96875 247.371094 C 223.433594 247.210938 223.898438 247.050781 224.359375 246.890625 C 222.824219 246.496094 221.28125 246.132812 219.726562 245.8125 C 219.515625 245.769531 219.304688 245.722656 219.089844 245.679688 C 218.519531 245.5625 217.945312 245.441406 217.375 245.324219 C 216.757812 245.195312 216.144531 245.066406 215.527344 244.941406 C 214.472656 244.71875 213.417969 244.5 212.363281 244.28125 C 210.695312 243.933594 209.027344 243.589844 207.363281 243.242188 C 207.222656 243.210938 207.082031 243.183594 206.9375 243.152344 C 206.375 243.035156 205.8125 242.917969 205.25 242.800781 C 204.398438 242.625 203.550781 242.449219 202.703125 242.269531 C 197.921875 241.277344 193.136719 240.277344 188.355469 239.273438 C 186.875 238.960938 185.390625 238.648438 183.910156 238.339844 C 183.539062 238.261719 183.167969 238.183594 182.800781 238.105469 C 179.710938 237.457031 176.625 236.8125 173.535156 236.164062 C 173.425781 236.140625 173.316406 236.121094 173.203125 236.09375 C 171.152344 235.667969 169.101562 235.238281 167.050781 234.808594 C 166.648438 234.726562 166.25 234.640625 165.847656 234.558594 C 165.75 234.535156 165.652344 234.515625 165.550781 234.496094 C 163.992188 234.167969 162.433594 233.84375 160.871094 233.515625 C 159.921875 233.316406 158.972656 233.117188 158.023438 232.917969 C 157.480469 232.804688 156.933594 232.691406 156.386719 232.578125 C 156.140625 232.527344 155.894531 232.472656 155.652344 232.421875 C 155.320312 232.355469 154.992188 232.285156 154.664062 232.214844 C 154.484375 232.179688 154.304688 232.140625 154.117188 232.101562 C 153.683594 232.003906 153.683594 232.003906 153.234375 231.855469 C 153.234375 160.203125 153.234375 88.554688 153.234375 14.734375 C 155.8125 14.734375 158.394531 14.734375 161.050781 14.734375 C 161.050781 86.335938 161.050781 157.933594 161.050781 231.703125 C 161.796875 231.800781 162.542969 231.902344 163.308594 232.003906 C 163.734375 232.074219 164.160156 232.144531 164.582031 232.222656 C 164.695312 232.242188 164.804688 232.261719 164.917969 232.28125 C 165.28125 232.347656 165.644531 232.414062 166.003906 232.480469 C 166.269531 232.527344 166.535156 232.578125 166.800781 232.625 C 167.527344 232.757812 168.25 232.890625 168.972656 233.019531 C 169.757812 233.164062 170.542969 233.304688 171.328125 233.449219 C 172.683594 233.695312 174.042969 233.941406 175.402344 234.191406 C 177.550781 234.582031 179.703125 234.972656 181.851562 235.363281 C 182.40625 235.464844 182.957031 235.5625 183.511719 235.664062 C 183.882812 235.730469 184.253906 235.800781 184.628906 235.867188 C 185.957031 236.109375 187.285156 236.351562 188.613281 236.589844 C 196.574219 238.039062 204.539062 239.480469 212.503906 240.921875 C 213.976562 241.1875 215.449219 241.457031 216.921875 241.722656 C 218.316406 241.976562 219.707031 242.226562 221.097656 242.480469 C 221.902344 242.625 222.707031 242.769531 223.511719 242.914062 C 224.25 243.050781 224.984375 243.183594 225.722656 243.316406 C 225.988281 243.363281 226.253906 243.410156 226.519531 243.460938 C 227.105469 243.566406 227.6875 243.671875 228.269531 243.773438 C 228.652344 243.84375 229.035156 243.914062 229.417969 243.988281 C 229.660156 244.03125 229.660156 244.03125 229.90625 244.078125 C 230.042969 244.101562 230.175781 244.128906 230.316406 244.15625 C 230.945312 244.203125 231.371094 243.949219 231.878906 243.609375 C 232.03125 243.515625 232.03125 243.515625 232.183594 243.421875 C 233.230469 242.769531 234.3125 242.050781 235.1875 241.175781 C 234.941406 240.929688 234.644531 240.957031 234.308594 240.914062 C 234.148438 240.890625 233.988281 240.871094 233.824219 240.847656 C 233.648438 240.824219 233.472656 240.804688 233.289062 240.777344 C 233.101562 240.753906 232.914062 240.730469 232.722656 240.703125 C 232.203125 240.636719 231.679688 240.566406 231.160156 240.5 C 230.597656 240.425781 230.035156 240.351562 229.472656 240.277344 C 228.496094 240.148438 227.515625 240.019531 226.535156 239.890625 C 225.097656 239.703125 223.660156 239.511719 222.226562 239.324219 C 219.867188 239.011719 217.507812 238.703125 215.148438 238.390625 C 212.902344 238.097656 210.660156 237.800781 208.414062 237.507812 C 208.277344 237.488281 208.144531 237.472656 208.003906 237.453125 C 207.320312 237.363281 206.636719 237.273438 205.957031 237.183594 C 204.59375 237.003906 203.234375 236.824219 201.871094 236.644531 C 201.738281 236.628906 201.605469 236.609375 201.464844 236.59375 C 198.511719 236.203125 195.558594 235.816406 192.601562 235.425781 C 192.339844 235.390625 192.074219 235.355469 191.8125 235.324219 C 188.628906 234.902344 185.449219 234.484375 182.265625 234.066406 C 180.40625 233.824219 178.546875 233.578125 176.6875 233.335938 C 175.515625 233.179688 174.339844 233.027344 173.167969 232.875 C 172.296875 232.757812 171.421875 232.644531 170.550781 232.53125 C 170.199219 232.484375 169.84375 232.4375 169.492188 232.390625 C 169.011719 232.328125 168.535156 232.265625 168.058594 232.203125 C 167.917969 232.183594 167.78125 232.164062 167.636719 232.148438 C 167.511719 232.128906 167.382812 232.113281 167.253906 232.097656 C 167.144531 232.082031 167.035156 232.066406 166.921875 232.054688 C 166.617188 232.003906 166.316406 231.929688 166.015625 231.855469 C 166.015625 160.203125 166.015625 88.554688 166.015625 14.734375 C 168.59375 14.734375 171.175781 14.734375 173.835938 14.734375 C 173.835938 79.785156 173.835938 144.835938 173.835938 211.855469 C 175.71875 212.054688 177.605469 212.253906 179.550781 212.457031 C 180.960938 212.632812 182.371094 212.808594 183.777344 213.003906 C 183.960938 213.027344 184.144531 213.050781 184.335938 213.078125 C 199.304688 215.128906 214.921875 217.757812 236.390625 228.847656 C 236.507812 228.941406 236.625 229.035156 236.742188 229.132812 C 238.273438 230.410156 239.574219 232.132812 240 234.109375 C 240.015625 234.320312 240.023438 234.53125 240.023438 234.742188 C 240.027344 234.867188 240.027344 234.988281 240.027344 235.117188 C 240.027344 235.25 240.03125 235.382812 240.03125 235.519531 C 240.03125 235.65625 240.03125 235.796875 240.03125 235.9375 C 240.035156 236.230469 240.035156 236.523438 240.035156 236.816406 C 240.039062 237.261719 240.042969 237.703125 240.046875 238.148438 C 240.0625 241.089844 239.539062 243.199219 237.433594 245.328125 C 236.414062 246.328125 235.339844 247.179688 234.136719 247.941406 C 234.042969 248 233.949219 248.0625 233.855469 248.121094 C 222.097656 255.578125 206.636719 257.945312 145.703125 264.585938 C 145.59375 264.589844 145.480469 264.59375 145.367188 264.597656 C 143.839844 264.664062 142.3125 264.71875 140.78125 264.769531 C 140.5625 264.777344 140.34375 264.785156 140.125 264.792969 C 135.027344 264.96875 129.929688 264.964844 124.832031 264.960938 C 124.488281 264.960938 124.148438 264.960938 123.804688 264.960938 C 117.203125 264.960938 110.605469 264.941406 104.011719 264.65625 C 103.445312 264.632812 102.878906 264.609375 102.3125 264.585938 C 88.226562 264.015625 74.167969 262.84375 26.917969 253.65625 C 26.636719 253.5625 26.636719 253.5625 26.347656 253.464844 C 12.207031 248.6875 12.207031 248.6875 9.023438 242.828125 C 8.382812 241.519531 8.25 240.265625 8.234375 238.824219 C 8.234375 238.703125 8.230469 238.582031 8.230469 238.460938 C 8.230469 238.207031 8.226562 237.953125 8.226562 237.699219 C 8.222656 237.445312 8.222656 237.1875 8.21875 236.933594 C 8.164062 233.941406 8.910156 231.628906 10.996094 229.417969 C 15.609375 224.707031 22.449219 222.304688 28.570312 220.277344 C 28.667969 220.242188 28.769531 220.210938 28.871094 220.175781 C 39.660156 216.613281 51.019531 214.660156 62.261719 213.121094 C 62.554688 213.078125 62.847656 213.039062 63.144531 212.996094 C 66.898438 212.484375 70.664062 212.105469 74.4375 211.707031 C 74.4375 146.707031 74.4375 81.707031 74.4375 14.734375 C 77.066406 14.734375 79.695312 14.734375 82.40625 14.734375 C 82.40625 86.382812 82.40625 158.035156 82.40625 231.855469 C 74.105469 233.0625 74.105469 233.0625 70.503906 233.554688 C 70.085938 233.613281 69.667969 233.671875 69.253906 233.726562 C 68.257812 233.863281 67.261719 234 66.265625 234.136719 C 65.082031 234.296875 63.902344 234.460938 62.722656 234.621094 C 60.59375 234.914062 58.46875 235.203125 56.34375 235.496094 C 54.324219 235.773438 52.304688 236.046875 50.285156 236.324219 C 50.164062 236.339844 50.039062 236.359375 49.914062 236.375 C 49.417969 236.445312 48.921875 236.511719 48.421875 236.578125 C 46.453125 236.851562 44.484375 237.121094 42.515625 237.390625 C 41.910156 237.472656 41.300781 237.554688 40.695312 237.640625 C 39.027344 237.867188 37.355469 238.097656 35.6875 238.324219 C 35.574219 238.339844 35.457031 238.355469 35.339844 238.371094 C 32.132812 238.8125 28.925781 239.246094 25.71875 239.683594 C 25.117188 239.765625 24.515625 239.847656 23.910156 239.929688 C 23.523438 239.980469 23.136719 240.03125 22.75 240.085938 C 22.5625 240.109375 22.375 240.136719 22.183594 240.164062 C 21.097656 240.308594 20.015625 240.457031 18.929688 240.601562 C 18.277344 240.691406 17.625 240.777344 16.972656 240.867188 C 16.675781 240.910156 16.375 240.949219 16.078125 240.988281 C 15.675781 241.042969 15.273438 241.097656 14.871094 241.152344 C 14.695312 241.175781 14.695312 241.175781 14.515625 241.199219 C 13.929688 241.273438 13.929688 241.273438 13.382812 241.476562 C 14.386719 242.277344 15.414062 242.996094 16.511719 243.65625 C 16.617188 243.722656 16.726562 243.785156 16.835938 243.855469 C 16.9375 243.914062 17.039062 243.976562 17.144531 244.039062 C 17.28125 244.117188 17.28125 244.117188 17.417969 244.199219 C 18.199219 244.519531 18.945312 244.5 19.757812 244.34375 C 20.039062 244.292969 20.039062 244.292969 20.328125 244.238281 C 20.535156 244.199219 20.738281 244.160156 20.945312 244.117188 C 21.164062 244.078125 21.386719 244.035156 21.605469 243.996094 C 22.207031 243.882812 22.808594 243.765625 23.410156 243.652344 C 24.050781 243.527344 24.695312 243.40625 25.339844 243.285156 C 26.445312 243.074219 27.550781 242.867188 28.65625 242.652344 C 30.261719 242.347656 31.863281 242.042969 33.46875 241.738281 C 34.207031 241.597656 34.949219 241.460938 35.6875 241.320312 C 35.832031 241.292969 35.980469 241.265625 36.128906 241.234375 C 37.171875 241.039062 38.214844 240.839844 39.257812 240.640625 C 39.476562 240.601562 39.476562 240.601562 39.699219 240.558594 C 39.847656 240.53125 39.992188 240.5 40.144531 240.472656 C 43.335938 239.867188 46.527344 239.261719 49.71875 238.664062 C 49.824219 238.644531 49.925781 238.625 50.03125 238.605469 C 51.144531 238.394531 52.257812 238.1875 53.371094 237.976562 C 55.15625 237.644531 56.9375 237.308594 58.71875 236.972656 C 59.121094 236.898438 59.519531 236.824219 59.917969 236.75 C 62.804688 236.207031 65.6875 235.664062 68.570312 235.121094 C 68.703125 235.09375 68.832031 235.070312 68.96875 235.046875 C 69.097656 235.019531 69.230469 234.996094 69.367188 234.96875 C 71.070312 234.648438 72.777344 234.328125 74.480469 234.007812 C 75.878906 233.746094 77.277344 233.480469 78.675781 233.214844 C 79.625 233.039062 80.578125 232.859375 81.527344 232.679688 C 82.078125 232.578125 82.628906 232.472656 83.179688 232.367188 C 83.777344 232.253906 84.375 232.144531 84.976562 232.03125 C 85.152344 231.996094 85.328125 231.964844 85.511719 231.929688 C 85.671875 231.898438 85.832031 231.867188 85.996094 231.835938 C 86.136719 231.8125 86.273438 231.785156 86.417969 231.757812 C 86.765625 231.703125 86.765625 231.703125 87.21875 231.703125 C 87.21875 160.105469 87.21875 88.503906 87.21875 14.734375 C 89.796875 14.734375 92.378906 14.734375 95.039062 14.734375 C 95.039062 86.382812 95.039062 158.035156 95.039062 231.855469 C 93.605469 232.210938 92.179688 232.566406 90.734375 232.875 C 90.472656 232.933594 90.472656 232.933594 90.203125 232.988281 C 89.726562 233.09375 89.25 233.195312 88.769531 233.300781 C 88.253906 233.410156 87.734375 233.523438 87.21875 233.636719 C 86.320312 233.828125 85.421875 234.023438 84.527344 234.21875 C 83.085938 234.527344 81.648438 234.839844 80.207031 235.152344 C 80.085938 235.175781 79.964844 235.203125 79.839844 235.230469 C 79.214844 235.363281 78.59375 235.5 77.972656 235.632812 C 77.464844 235.746094 76.957031 235.855469 76.453125 235.964844 C 72.816406 236.75 69.179688 237.539062 65.542969 238.332031 C 65.429688 238.355469 65.316406 238.378906 65.199219 238.40625 C 63.832031 238.703125 62.464844 239 61.097656 239.300781 C 58.933594 239.769531 56.769531 240.242188 54.605469 240.714844 C 54.492188 240.738281 54.378906 240.761719 54.261719 240.789062 C 50.492188 241.609375 46.71875 242.429688 42.945312 243.246094 C 42.820312 243.273438 42.695312 243.300781 42.566406 243.328125 C 40.03125 243.878906 37.492188 244.425781 34.957031 244.976562 C 34.183594 245.144531 33.414062 245.3125 32.640625 245.476562 C 32.132812 245.589844 31.625 245.699219 31.113281 245.808594 C 29.011719 246.261719 26.910156 246.71875 24.8125 247.191406 C 25.421875 247.414062 26.035156 247.632812 26.648438 247.847656 C 26.855469 247.921875 27.0625 247.996094 27.269531 248.074219 C 27.570312 248.183594 27.871094 248.289062 28.175781 248.394531 C 28.355469 248.457031 28.535156 248.523438 28.722656 248.589844 C 29.507812 248.777344 30.207031 248.578125 30.976562 248.394531 C 31.082031 248.367188 31.191406 248.34375 31.300781 248.316406 C 32.269531 248.09375 33.238281 247.855469 34.203125 247.617188 C 34.527344 247.539062 34.855469 247.460938 35.179688 247.378906 C 35.878906 247.210938 36.582031 247.039062 37.28125 246.867188 C 38.402344 246.59375 39.523438 246.320312 40.644531 246.046875 C 41.816406 245.761719 42.984375 245.476562 44.15625 245.191406 C 46.730469 244.5625 49.304688 243.933594 51.878906 243.308594 C 52.132812 243.246094 52.132812 243.246094 52.394531 243.183594 C 53.078125 243.019531 53.757812 242.851562 54.441406 242.6875 C 56.34375 242.222656 58.246094 241.761719 60.148438 241.296875 C 60.320312 241.257812 60.492188 241.214844 60.671875 241.171875 C 64.242188 240.304688 67.8125 239.433594 71.382812 238.5625 C 72.636719 238.257812 73.890625 237.953125 75.144531 237.648438 C 75.859375 237.472656 76.574219 237.300781 77.289062 237.125 C 77.464844 237.082031 77.640625 237.039062 77.824219 236.996094 C 80.085938 236.445312 82.347656 235.894531 84.609375 235.34375 C 86.171875 234.960938 87.730469 234.582031 89.292969 234.199219 C 90.402344 233.929688 91.507812 233.660156 92.617188 233.390625 C 93.296875 233.222656 93.980469 233.054688 94.660156 232.890625 C 94.976562 232.8125 95.292969 232.738281 95.605469 232.660156 C 96.039062 232.554688 96.46875 232.449219 96.898438 232.34375 C 97.023438 232.3125 97.144531 232.285156 97.273438 232.253906 C 98.179688 232.03125 99.078125 231.871094 100 231.703125 C 100 160.105469 100 88.503906 100 14.734375 C 102.582031 14.734375 105.160156 14.734375 107.820312 14.734375 C 107.820312 86.382812 107.820312 158.035156 107.820312 231.855469 C 105.714844 232.46875 103.609375 233.082031 101.492188 233.660156 C 101.242188 233.730469 100.996094 233.796875 100.746094 233.867188 C 100.214844 234.011719 99.6875 234.160156 99.15625 234.304688 C 98.304688 234.539062 97.449219 234.773438 96.597656 235.007812 C 96.449219 235.050781 96.304688 235.089844 96.152344 235.128906 C 95.851562 235.214844 95.554688 235.296875 95.253906 235.378906 C 94.796875 235.503906 94.34375 235.628906 93.886719 235.753906 C 90.90625 236.574219 87.925781 237.398438 84.945312 238.226562 C 83.460938 238.636719 81.980469 239.046875 80.496094 239.453125 C 80.351562 239.496094 80.203125 239.535156 80.054688 239.578125 C 76.96875 240.429688 73.878906 241.285156 70.792969 242.136719 C 70.386719 242.246094 69.980469 242.359375 69.574219 242.472656 C 67 243.179688 64.421875 243.890625 61.84375 244.601562 C 56.1875 246.160156 50.53125 247.71875 44.878906 249.289062 C 44.347656 249.4375 43.816406 249.582031 43.285156 249.730469 C 42.671875 249.902344 42.054688 250.070312 41.441406 250.242188 C 41.214844 250.304688 40.992188 250.367188 40.765625 250.429688 C 40.460938 250.515625 40.152344 250.601562 39.847656 250.6875 C 39.589844 250.757812 39.589844 250.757812 39.328125 250.828125 C 38.960938 250.914062 38.960938 250.914062 38.796875 251.101562 C 39.582031 251.28125 40.367188 251.457031 41.15625 251.628906 C 41.421875 251.6875 41.691406 251.75 41.957031 251.8125 C 42.34375 251.898438 42.726562 251.984375 43.113281 252.070312 C 43.230469 252.097656 43.347656 252.125 43.46875 252.152344 C 44.992188 252.472656 46.390625 251.910156 47.839844 251.460938 C 48.011719 251.40625 48.1875 251.351562 48.367188 251.296875 C 48.835938 251.152344 49.308594 251.007812 49.78125 250.863281 C 50.28125 250.707031 50.785156 250.550781 51.289062 250.398438 C 51.390625 250.367188 51.492188 250.335938 51.597656 250.304688 C 51.800781 250.242188 52.007812 250.179688 52.210938 250.113281 C 52.519531 250.019531 52.828125 249.925781 53.136719 249.832031 C 54.867188 249.300781 56.597656 248.777344 58.328125 248.261719 C 58.941406 248.078125 59.554688 247.894531 60.167969 247.710938 C 60.417969 247.636719 60.417969 247.636719 60.675781 247.558594 C 63.296875 246.773438 65.921875 245.984375 68.542969 245.191406 C 69.148438 245.011719 69.753906 244.828125 70.359375 244.644531 C 71.597656 244.273438 72.832031 243.902344 74.070312 243.527344 C 76.019531 242.941406 77.964844 242.355469 79.914062 241.769531 C 80.054688 241.726562 80.199219 241.683594 80.347656 241.640625 C 81.648438 241.246094 82.949219 240.855469 84.25 240.464844 C 85.121094 240.203125 85.992188 239.941406 86.859375 239.679688 C 87.003906 239.636719 87.148438 239.589844 87.296875 239.546875 C 89.699219 238.824219 92.101562 238.101562 94.503906 237.375 C 96.996094 236.625 99.484375 235.878906 101.972656 235.128906 C 103.382812 234.703125 104.789062 234.28125 106.199219 233.855469 C 107.078125 233.589844 107.957031 233.328125 108.832031 233.0625 C 109.324219 232.914062 109.816406 232.765625 110.304688 232.617188 C 110.828125 232.460938 111.351562 232.304688 111.871094 232.148438 C 112.023438 232.101562 112.175781 232.054688 112.332031 232.007812 C 112.464844 231.96875 112.601562 231.925781 112.742188 231.886719 C 112.859375 231.847656 112.976562 231.8125 113.097656 231.777344 C 113.382812 231.703125 113.382812 231.703125 113.683594 231.703125 C 113.683594 158.863281 113.683594 86.023438 113.683594 10.976562 C 115.273438 10.976562 116.859375 10.976562 118.496094 10.976562 C 118.496094 83.867188 118.496094 156.753906 118.496094 231.855469 C 115.394531 233.058594 115.394531 233.058594 114.390625 233.402344 C 114.148438 233.484375 113.902344 233.570312 113.660156 233.65625 C 113.535156 233.699219 113.40625 233.742188 113.277344 233.785156 C 110.695312 234.675781 108.117188 235.589844 105.546875 236.515625 C 102.53125 237.597656 99.515625 238.671875 96.496094 239.738281 C 93.398438 240.832031 90.300781 241.929688 87.207031 243.035156 C 84.65625 243.949219 82.105469 244.859375 79.550781 245.761719 C 76.761719 246.746094 73.976562 247.738281 71.195312 248.734375 C 68.382812 249.742188 65.566406 250.742188 62.75 251.734375 C 61.476562 252.1875 60.203125 252.636719 58.933594 253.097656 C 58.832031 253.132812 58.730469 253.167969 58.625 253.207031 C 58.167969 253.371094 57.714844 253.535156 57.257812 253.703125 C 57.109375 253.757812 56.957031 253.8125 56.800781 253.867188 C 56.671875 253.914062 56.546875 253.960938 56.414062 254.007812 C 56.089844 254.105469 56.089844 254.105469 55.640625 254.105469 C 55.640625 254.207031 55.640625 254.304688 55.640625 254.40625 C 55.734375 254.410156 55.832031 254.417969 55.933594 254.421875 C 57.589844 254.523438 59.222656 254.78125 60.863281 255.023438 C 73.632812 256.882812 86.519531 257.921875 100.355469 258.570312 C 100.652344 258.585938 100.652344 258.585938 100.957031 258.597656 C 103.894531 258.734375 106.832031 258.835938 109.773438 258.917969 C 110.003906 258.925781 110.003906 258.925781 110.242188 258.933594 C 119.695312 259.203125 129.191406 259.222656 138.648438 258.917969 C 138.746094 258.914062 138.847656 258.910156 138.949219 258.910156 C 151.625 258.503906 164.273438 257.753906 194.585938 253.957031 C 192.183594 253.042969 189.769531 252.164062 187.34375 251.308594 C 186.46875 250.996094 185.589844 250.683594 184.714844 250.375 C 184.515625 250.304688 184.316406 250.230469 184.117188 250.160156 C 182.207031 249.484375 180.300781 248.796875 178.394531 248.109375 C 178.242188 248.058594 178.09375 248.003906 177.941406 247.949219 C 177.324219 247.726562 176.703125 247.503906 176.085938 247.277344 C 174.09375 246.5625 172.105469 245.847656 170.113281 245.132812 C 169.800781 245.019531 169.492188 244.90625 169.183594 244.796875 C 166.289062 243.757812 163.390625 242.71875 160.496094 241.679688 C 157.722656 240.6875 154.953125 239.691406 152.179688 238.695312 C 149.335938 237.671875 146.492188 236.652344 143.648438 235.632812 C 143.15625 235.457031 142.664062 235.277344 142.171875 235.101562 C 140.796875 234.609375 139.421875 234.117188 138.042969 233.625 C 137.484375 233.425781 136.925781 233.226562 136.367188 233.027344 C 136.109375 232.933594 135.851562 232.84375 135.59375 232.75 C 135.246094 232.628906 134.898438 232.503906 134.550781 232.378906 C 134.449219 232.34375 134.347656 232.304688 134.242188 232.269531 C 133.550781 232.019531 133.550781 232.019531 133.382812 231.855469 C 133.367188 231.648438 133.363281 231.441406 133.363281 231.234375 C 133.363281 231.097656 133.363281 230.964844 133.363281 230.824219 C 133.363281 230.597656 133.363281 230.597656 133.363281 230.371094 C 133.363281 230.210938 133.363281 230.050781 133.363281 229.886719 C 133.363281 229.347656 133.363281 228.804688 133.363281 228.265625 C 133.363281 227.875 133.363281 227.484375 133.363281 227.097656 C 133.363281 226.242188 133.363281 225.386719 133.363281 224.53125 C 133.367188 223.253906 133.367188 221.972656 133.363281 220.691406 C 133.363281 218.511719 133.363281 216.332031 133.367188 214.152344 C 133.367188 211.941406 133.367188 209.730469 133.367188 207.519531 C 133.367188 207.308594 133.367188 207.308594 133.367188 207.097656 C 133.367188 206.386719 133.367188 205.675781 133.367188 204.964844 C 133.367188 199.8125 133.367188 194.664062 133.367188 189.511719 C 133.367188 184.410156 133.367188 179.308594 133.371094 174.203125 C 133.371094 174.046875 133.371094 173.886719 133.371094 173.722656 C 133.371094 172.277344 133.371094 170.832031 133.371094 169.386719 C 133.371094 165.792969 133.371094 162.195312 133.371094 158.601562 C 133.371094 158.4375 133.371094 158.273438 133.371094 158.105469 C 133.371094 150.136719 133.371094 142.167969 133.371094 134.195312 C 133.371094 131.429688 133.371094 128.664062 133.375 125.898438 C 133.375 125.640625 133.375 125.640625 133.375 125.378906 C 133.375 117.40625 133.375 109.433594 133.375 101.460938 C 133.375 100.945312 133.375 100.425781 133.375 99.910156 C 133.375 96.480469 133.375 93.050781 133.375 89.625 C 133.375 82.800781 133.375 75.980469 133.378906 69.15625 C 133.378906 68.832031 133.378906 68.507812 133.378906 68.179688 C 133.378906 53.550781 133.378906 38.917969 133.382812 24.285156 C 133.382812 24.078125 133.382812 24.078125 133.382812 23.871094 C 133.382812 17.015625 133.382812 10.160156 133.382812 3.308594 C 135.019531 3.308594 136.660156 3.308594 138.347656 3.308594 C 138.347656 78.679688 138.347656 154.050781 138.347656 231.703125 C 139.238281 231.925781 139.238281 231.925781 140.148438 232.15625 C 140.457031 232.242188 140.761719 232.332031 141.0625 232.425781 C 141.222656 232.472656 141.378906 232.523438 141.542969 232.570312 C 141.707031 232.625 141.875 232.675781 142.046875 232.730469 C 142.328125 232.816406 142.605469 232.902344 142.886719 232.988281 C 143.183594 233.082031 143.484375 233.175781 143.785156 233.265625 C 144.875 233.605469 145.96875 233.941406 147.0625 234.28125 C 147.179688 234.316406 147.292969 234.351562 147.414062 234.386719 C 150.089844 235.214844 152.769531 236.027344 155.453125 236.84375 C 155.828125 236.957031 156.207031 237.070312 156.582031 237.1875 C 157.589844 237.492188 158.597656 237.796875 159.605469 238.101562 C 161.992188 238.828125 164.378906 239.554688 166.765625 240.28125 C 167.191406 240.410156 167.621094 240.539062 168.046875 240.667969 C 168.894531 240.925781 169.742188 241.1875 170.589844 241.445312 C 171.984375 241.867188 173.375 242.292969 174.769531 242.714844 C 174.929688 242.765625 174.929688 242.765625 175.09375 242.8125 C 175.636719 242.980469 176.175781 243.144531 176.71875 243.308594 C 177.691406 243.605469 178.664062 243.902344 179.636719 244.195312 C 180.179688 244.363281 180.71875 244.527344 181.257812 244.691406 C 181.476562 244.757812 181.691406 244.820312 181.90625 244.886719 C 182.015625 244.921875 182.121094 244.953125 182.230469 244.988281 C 183.203125 245.28125 183.203125 245.28125 183.527344 245.382812 C 183.746094 245.445312 183.960938 245.511719 184.175781 245.578125 C 184.71875 245.742188 185.257812 245.90625 185.800781 246.074219 C 186.769531 246.367188 187.734375 246.660156 188.703125 246.957031 C 189.238281 247.117188 189.769531 247.28125 190.304688 247.441406 C 190.410156 247.476562 190.515625 247.507812 190.625 247.539062 C 192.117188 247.996094 193.613281 248.449219 195.105469 248.902344 C 195.945312 249.160156 196.789062 249.417969 197.628906 249.671875 C 198.316406 249.882812 199 250.089844 199.6875 250.300781 C 200.109375 250.429688 200.535156 250.558594 200.957031 250.6875 C 201.246094 250.773438 201.535156 250.859375 201.820312 250.949219 C 202.164062 251.050781 202.503906 251.15625 202.847656 251.257812 C 203.140625 251.347656 203.433594 251.441406 203.726562 251.539062 C 204.941406 251.933594 205.875 251.921875 207.132812 251.621094 C 207.230469 251.597656 207.332031 251.574219 207.433594 251.550781 C 207.75 251.476562 208.066406 251.402344 208.382812 251.324219 C 208.703125 251.25 209.019531 251.175781 209.339844 251.101562 C 209.625 251.03125 209.914062 250.964844 210.199219 250.894531 C 210.675781 250.800781 210.675781 250.800781 211.277344 250.800781 C 211.277344 250.699219 211.277344 250.601562 211.277344 250.5 C 211.125 250.484375 210.972656 250.472656 210.8125 250.460938 C 209.8125 250.332031 208.851562 250.03125 207.878906 249.757812 C 207.660156 249.695312 207.4375 249.636719 207.21875 249.574219 C 206.742188 249.441406 206.265625 249.308594 205.789062 249.175781 C 205.023438 248.960938 204.257812 248.75 203.492188 248.535156 C 203.226562 248.464844 202.964844 248.390625 202.699219 248.316406 C 202.503906 248.261719 202.503906 248.261719 202.300781 248.207031 C 201.894531 248.09375 201.488281 247.980469 201.082031 247.867188 C 198.546875 247.160156 196.011719 246.464844 193.472656 245.765625 C 192.21875 245.421875 190.96875 245.078125 189.714844 244.734375 C 189.589844 244.699219 189.464844 244.664062 189.332031 244.628906 C 186.246094 243.78125 183.160156 242.929688 180.074219 242.078125 C 175.644531 240.855469 171.214844 239.636719 166.785156 238.417969 C 163.863281 237.613281 160.941406 236.8125 158.015625 236.003906 C 157.871094 235.964844 157.726562 235.921875 157.574219 235.882812 C 156.148438 235.488281 154.722656 235.09375 153.292969 234.699219 C 152.773438 234.554688 152.25 234.414062 151.726562 234.269531 C 151.472656 234.199219 151.222656 234.128906 150.96875 234.058594 C 149.628906 233.6875 148.289062 233.320312 146.949219 232.957031 C 146.832031 232.925781 146.714844 232.894531 146.59375 232.859375 C 146.042969 232.710938 145.492188 232.5625 144.9375 232.414062 C 144.652344 232.335938 144.652344 232.335938 144.359375 232.253906 C 144.109375 232.1875 144.109375 232.1875 143.851562 232.117188 C 143.457031 232.003906 143.457031 232.003906 143.15625 231.855469 C 143.15625 155.34375 143.15625 78.832031 143.15625 0 Z M 73.460938 214.203125 C 73.28125 214.222656 73.105469 214.242188 72.925781 214.265625 C 72.632812 214.296875 72.632812 214.296875 72.339844 214.332031 C 72.238281 214.34375 72.140625 214.351562 72.039062 214.363281 C 71.515625 214.425781 70.992188 214.484375 70.472656 214.542969 C 69.9375 214.605469 69.402344 214.667969 68.867188 214.726562 C 68.449219 214.773438 68.035156 214.820312 67.621094 214.871094 C 67.328125 214.902344 67.039062 214.9375 66.746094 214.96875 C 65.496094 215.113281 64.253906 215.28125 63.007812 215.464844 C 63.394531 215.722656 63.671875 215.855469 64.105469 216 C 64.300781 216.066406 64.300781 216.066406 64.5 216.136719 C 64.640625 216.183594 64.78125 216.230469 64.925781 216.277344 C 65.074219 216.328125 65.222656 216.378906 65.375 216.429688 C 65.851562 216.589844 66.328125 216.75 66.804688 216.910156 C 67.269531 217.066406 67.730469 217.226562 68.195312 217.382812 C 68.503906 217.484375 68.8125 217.589844 69.121094 217.695312 C 69.921875 217.964844 70.71875 218.238281 71.515625 218.519531 C 71.753906 218.601562 71.753906 218.601562 71.996094 218.6875 C 72.300781 218.792969 72.601562 218.902344 72.90625 219.011719 C 73.039062 219.058594 73.175781 219.105469 73.316406 219.15625 C 73.433594 219.199219 73.554688 219.238281 73.675781 219.285156 C 74.003906 219.394531 74.003906 219.394531 74.4375 219.375 C 74.4375 217.636719 74.4375 215.902344 74.4375 214.109375 C 74.109375 214.109375 73.78125 214.167969 73.460938 214.203125 Z M 173.835938 214.710938 C 173.835938 216.25 173.835938 217.789062 173.835938 219.375 C 174.867188 219.15625 174.867188 219.15625 175.859375 218.863281 C 175.972656 218.824219 176.085938 218.785156 176.203125 218.746094 C 176.324219 218.703125 176.441406 218.664062 176.5625 218.621094 C 176.691406 218.578125 176.820312 218.53125 176.949219 218.488281 C 177.355469 218.347656 177.761719 218.207031 178.167969 218.066406 C 178.433594 217.976562 178.699219 217.886719 178.964844 217.792969 C 180.765625 217.175781 182.5625 216.546875 184.359375 215.914062 C 184.359375 215.867188 184.359375 215.816406 184.359375 215.765625 C 183.1875 215.628906 182.015625 215.488281 180.84375 215.355469 C 180.296875 215.289062 179.753906 215.226562 179.210938 215.164062 C 178.683594 215.101562 178.15625 215.039062 177.628906 214.976562 C 177.332031 214.945312 177.035156 214.910156 176.738281 214.875 C 176.554688 214.851562 176.371094 214.832031 176.183594 214.808594 C 176.023438 214.789062 175.863281 214.773438 175.699219 214.753906 C 175.078125 214.703125 174.457031 214.710938 173.835938 214.710938 Z M 54.042969 216.816406 C 53.808594 216.859375 53.808594 216.859375 53.574219 216.902344 C 53.460938 216.925781 53.347656 216.945312 53.234375 216.96875 C 53.234375 217.019531 53.234375 217.066406 53.234375 217.117188 C 53.332031 217.140625 53.429688 217.160156 53.53125 217.179688 C 55.917969 217.683594 58.304688 218.1875 60.691406 218.691406 C 61.847656 218.933594 63 219.175781 64.15625 219.421875 C 65.164062 219.632812 66.167969 219.84375 67.175781 220.058594 C 67.707031 220.171875 68.242188 220.28125 68.773438 220.394531 C 69.371094 220.519531 69.964844 220.644531 70.5625 220.769531 C 70.734375 220.808594 70.910156 220.84375 71.089844 220.882812 C 71.253906 220.917969 71.417969 220.953125 71.585938 220.988281 C 71.816406 221.035156 71.816406 221.035156 72.050781 221.085938 C 72.550781 221.191406 73.050781 221.308594 73.546875 221.425781 C 73.882812 221.496094 73.882812 221.496094 74.4375 221.480469 C 74.4375 221.230469 74.4375 220.984375 74.4375 220.726562 C 72.28125 220.21875 70.125 219.71875 67.96875 219.222656 C 67.859375 219.199219 67.75 219.171875 67.636719 219.148438 C 66.128906 218.800781 64.621094 218.457031 63.113281 218.117188 C 62.464844 217.96875 61.816406 217.824219 61.171875 217.675781 C 60.550781 217.53125 59.933594 217.390625 59.3125 217.253906 C 59.082031 217.199219 58.851562 217.148438 58.621094 217.09375 C 57.046875 216.734375 55.640625 216.519531 54.042969 216.816406 Z M 189.351562 217.160156 C 189.1875 217.195312 189.027344 217.234375 188.859375 217.269531 C 188.324219 217.390625 187.789062 217.511719 187.253906 217.632812 C 186.882812 217.71875 186.511719 217.800781 186.136719 217.886719 C 185.359375 218.0625 184.582031 218.238281 183.800781 218.414062 C 182.804688 218.640625 181.804688 218.867188 180.804688 219.09375 C 179.851562 219.308594 178.902344 219.523438 177.949219 219.738281 C 177.765625 219.78125 177.585938 219.820312 177.398438 219.863281 C 176.882812 219.980469 176.367188 220.097656 175.855469 220.214844 C 175.703125 220.25 175.546875 220.285156 175.390625 220.320312 C 175.25 220.351562 175.113281 220.382812 174.96875 220.414062 C 174.785156 220.457031 174.785156 220.457031 174.597656 220.5 C 174.261719 220.578125 174.261719 220.578125 173.835938 220.726562 C 173.835938 220.976562 173.835938 221.222656 173.835938 221.480469 C 174.785156 221.375 175.707031 221.203125 176.640625 221.003906 C 176.796875 220.972656 176.953125 220.9375 177.113281 220.902344 C 177.628906 220.796875 178.140625 220.6875 178.65625 220.578125 C 179.015625 220.503906 179.375 220.425781 179.734375 220.351562 C 180.492188 220.191406 181.246094 220.03125 182 219.871094 C 182.960938 219.667969 183.921875 219.46875 184.882812 219.265625 C 185.625 219.109375 186.371094 218.949219 187.113281 218.792969 C 187.46875 218.71875 187.820312 218.644531 188.175781 218.570312 C 190.070312 218.171875 191.960938 217.761719 193.835938 217.269531 C 193.835938 217.21875 193.835938 217.167969 193.835938 217.117188 C 193.527344 217.066406 193.21875 217.019531 192.914062 216.96875 C 192.742188 216.941406 192.570312 216.914062 192.394531 216.882812 C 191.3125 216.746094 190.402344 216.917969 189.351562 217.160156 Z M 42.679688 219.074219 C 42.5625 219.101562 42.449219 219.128906 42.332031 219.160156 C 42.054688 219.230469 41.78125 219.300781 41.503906 219.375 C 41.503906 219.421875 41.503906 219.472656 41.503906 219.523438 C 45.640625 220.054688 49.78125 220.582031 53.917969 221.113281 C 55.839844 221.359375 57.761719 221.601562 59.683594 221.847656 C 61.359375 222.0625 63.03125 222.277344 64.707031 222.492188 C 65.59375 222.605469 66.480469 222.71875 67.367188 222.832031 C 68.203125 222.9375 69.039062 223.046875 69.871094 223.152344 C 70.179688 223.191406 70.484375 223.230469 70.792969 223.269531 C 71.210938 223.324219 71.628906 223.375 72.046875 223.429688 C 72.226562 223.453125 72.226562 223.453125 72.414062 223.476562 C 73.09375 223.5625 73.75 223.597656 74.4375 223.582031 C 74.4375 223.335938 74.4375 223.085938 74.4375 222.832031 C 73.121094 222.507812 71.785156 222.335938 70.441406 222.152344 C 70.175781 222.113281 69.910156 222.078125 69.640625 222.039062 C 68.917969 221.941406 68.195312 221.839844 67.472656 221.742188 C 66.867188 221.660156 66.265625 221.574219 65.660156 221.492188 C 64.234375 221.292969 62.804688 221.097656 61.378906 220.902344 C 59.910156 220.699219 58.441406 220.496094 56.96875 220.292969 C 55.707031 220.121094 54.441406 219.945312 53.179688 219.773438 C 52.425781 219.667969 51.671875 219.5625 50.917969 219.460938 C 50.207031 219.359375 49.496094 219.261719 48.789062 219.167969 C 48.53125 219.132812 48.269531 219.09375 48.011719 219.058594 C 46.1875 218.804688 44.480469 218.59375 42.679688 219.074219 Z M 201.40625 218.917969 C 201.289062 218.9375 201.175781 218.953125 201.054688 218.96875 C 200.664062 219.019531 200.273438 219.074219 199.882812 219.128906 C 199.605469 219.167969 199.324219 219.207031 199.046875 219.242188 C 198.285156 219.347656 197.527344 219.453125 196.765625 219.558594 C 196.132812 219.644531 195.5 219.730469 194.867188 219.816406 C 193.371094 220.023438 191.878906 220.230469 190.382812 220.433594 C 188.84375 220.648438 187.296875 220.859375 185.753906 221.070312 C 184.433594 221.25 183.109375 221.433594 181.785156 221.617188 C 180.996094 221.726562 180.203125 221.832031 179.414062 221.941406 C 178.667969 222.042969 177.925781 222.144531 177.183594 222.25 C 176.910156 222.285156 176.636719 222.324219 176.363281 222.363281 C 175.988281 222.414062 175.617188 222.464844 175.246094 222.515625 C 175.136719 222.53125 175.027344 222.542969 174.914062 222.558594 C 174.355469 222.636719 174.355469 222.636719 173.835938 222.832031 C 173.835938 223.082031 173.835938 223.328125 173.835938 223.582031 C 175.582031 223.492188 177.308594 223.296875 179.042969 223.078125 C 179.332031 223.039062 179.621094 223.003906 179.910156 222.964844 C 180.691406 222.867188 181.472656 222.769531 182.25 222.667969 C 182.902344 222.585938 183.554688 222.503906 184.207031 222.421875 C 185.746094 222.226562 187.28125 222.027344 188.820312 221.832031 C 190.40625 221.628906 191.992188 221.429688 193.578125 221.226562 C 194.941406 221.054688 196.304688 220.882812 197.667969 220.707031 C 198.484375 220.605469 199.296875 220.5 200.109375 220.398438 C 200.875 220.300781 201.636719 220.203125 202.402344 220.105469 C 202.679688 220.070312 202.960938 220.035156 203.242188 220 C 203.625 219.953125 204.007812 219.902344 204.386719 219.851562 C 204.5 219.839844 204.609375 219.824219 204.726562 219.8125 C 205.257812 219.742188 205.703125 219.65625 206.164062 219.375 C 205.675781 219.273438 205.1875 219.171875 204.699219 219.074219 C 204.5625 219.042969 204.421875 219.015625 204.28125 218.984375 C 204.144531 218.960938 204.011719 218.933594 203.875 218.902344 C 203.75 218.878906 203.628906 218.855469 203.503906 218.828125 C 202.792969 218.714844 202.113281 218.820312 201.40625 218.917969 Z M 30.113281 222.441406 C 30.007812 222.480469 29.90625 222.515625 29.800781 222.554688 C 29.484375 222.667969 29.167969 222.789062 28.851562 222.90625 C 28.632812 222.988281 28.414062 223.066406 28.195312 223.144531 C 27.667969 223.335938 27.140625 223.535156 26.617188 223.734375 C 26.617188 223.785156 26.617188 223.832031 26.617188 223.882812 C 36.257812 224.257812 45.902344 224.609375 55.546875 224.960938 C 55.792969 224.96875 55.792969 224.96875 56.046875 224.976562 C 56.214844 224.984375 56.378906 224.988281 56.550781 224.996094 C 57.71875 225.039062 58.890625 225.082031 60.0625 225.121094 C 61.511719 225.175781 62.960938 225.226562 64.410156 225.28125 C 65.160156 225.308594 65.914062 225.335938 66.664062 225.363281 C 67.363281 225.386719 68.0625 225.414062 68.761719 225.4375 C 69.015625 225.445312 69.269531 225.457031 69.519531 225.464844 C 71.160156 225.527344 72.796875 225.550781 74.4375 225.539062 C 74.4375 225.289062 74.4375 225.042969 74.4375 224.785156 C 72.144531 224.554688 69.851562 224.378906 67.554688 224.230469 C 67.191406 224.207031 66.828125 224.183594 66.46875 224.160156 C 65.59375 224.101562 64.722656 224.046875 63.847656 223.988281 C 63.136719 223.941406 62.425781 223.898438 61.71875 223.851562 C 59.476562 223.703125 57.234375 223.558594 54.992188 223.414062 C 53.230469 223.300781 51.46875 223.183594 49.707031 223.070312 C 47.890625 222.953125 46.070312 222.832031 44.253906 222.714844 C 43.238281 222.648438 42.21875 222.582031 41.203125 222.515625 C 40.246094 222.453125 39.292969 222.390625 38.335938 222.332031 C 37.988281 222.308594 37.636719 222.285156 37.289062 222.261719 C 35.726562 222.160156 34.167969 222.0625 32.597656 222.058594 C 32.492188 222.058594 32.382812 222.054688 32.269531 222.054688 C 31.496094 222.0625 30.828125 222.15625 30.113281 222.441406 Z M 210.054688 222.3125 C 209.667969 222.335938 209.28125 222.363281 208.894531 222.386719 C 207.957031 222.449219 207.023438 222.507812 206.085938 222.570312 C 204.996094 222.640625 203.90625 222.710938 202.816406 222.785156 C 200.871094 222.910156 198.921875 223.035156 196.976562 223.164062 C 195.089844 223.289062 193.207031 223.410156 191.320312 223.53125 C 191.203125 223.539062 191.085938 223.546875 190.964844 223.554688 C 190.792969 223.566406 190.792969 223.566406 190.613281 223.578125 C 188.460938 223.71875 186.308594 223.859375 184.15625 224 C 183.394531 224.046875 182.636719 224.097656 181.875 224.148438 C 180.855469 224.214844 179.832031 224.28125 178.8125 224.347656 C 178.4375 224.371094 178.0625 224.398438 177.6875 224.421875 C 177.175781 224.453125 176.664062 224.488281 176.152344 224.519531 C 176.003906 224.53125 175.855469 224.539062 175.703125 224.550781 C 175.496094 224.5625 175.496094 224.5625 175.285156 224.578125 C 175.109375 224.589844 175.109375 224.589844 174.929688 224.601562 C 174.558594 224.640625 174.199219 224.707031 173.835938 224.785156 C 173.835938 225.035156 173.835938 225.28125 173.835938 225.539062 C 176.046875 225.5625 178.25 225.484375 180.460938 225.402344 C 180.867188 225.386719 181.273438 225.375 181.679688 225.359375 C 182.664062 225.324219 183.648438 225.289062 184.632812 225.253906 C 185.78125 225.210938 186.933594 225.167969 188.082031 225.128906 C 190.136719 225.054688 192.191406 224.980469 194.246094 224.90625 C 196.230469 224.832031 198.21875 224.761719 200.203125 224.6875 C 200.324219 224.683594 200.445312 224.679688 200.574219 224.675781 C 201.0625 224.65625 201.554688 224.640625 202.046875 224.621094 C 204.066406 224.550781 206.082031 224.476562 208.101562 224.402344 C 208.558594 224.386719 209.015625 224.371094 209.472656 224.355469 C 210.675781 224.308594 211.875 224.265625 213.078125 224.222656 C 213.574219 224.207031 214.070312 224.1875 214.566406 224.167969 C 216.980469 224.082031 219.390625 223.988281 221.804688 223.882812 C 221.242188 223.324219 220.390625 223.164062 219.644531 222.917969 C 219.441406 222.851562 219.238281 222.777344 219.03125 222.707031 C 217.878906 222.292969 216.808594 222.027344 215.578125 222.046875 C 215.394531 222.046875 215.394531 222.046875 215.210938 222.050781 C 213.488281 222.074219 211.773438 222.199219 210.054688 222.3125 Z M 173.835938 227.191406 C 173.835938 228.679688 173.835938 230.167969 173.835938 231.703125 C 175.59375 231.90625 177.355469 232.082031 179.121094 232.230469 C 179.367188 232.25 179.613281 232.269531 179.859375 232.289062 C 180.53125 232.347656 181.203125 232.402344 181.871094 232.457031 C 182.597656 232.519531 183.324219 232.578125 184.050781 232.640625 C 185.46875 232.757812 186.890625 232.878906 188.308594 232.996094 C 189.460938 233.089844 190.613281 233.1875 191.769531 233.285156 C 191.933594 233.296875 192.097656 233.3125 192.265625 233.324219 C 192.601562 233.351562 192.9375 233.382812 193.269531 233.410156 C 196.398438 233.671875 199.527344 233.929688 202.65625 234.191406 C 205.515625 234.429688 208.378906 234.667969 211.242188 234.90625 C 214.183594 235.152344 217.125 235.398438 220.066406 235.644531 C 221.71875 235.78125 223.367188 235.917969 225.015625 236.054688 C 226.421875 236.171875 227.824219 236.289062 229.226562 236.40625 C 229.945312 236.464844 230.660156 236.527344 231.375 236.585938 C 232.03125 236.640625 232.6875 236.695312 233.339844 236.75 C 233.578125 236.769531 233.816406 236.789062 234.050781 236.808594 C 235.671875 236.945312 235.671875 236.945312 237.292969 236.964844 C 237.386719 234.695312 236.179688 232.824219 234.765625 231.148438 C 233.660156 229.953125 232.332031 228.988281 230.976562 228.09375 C 230.851562 228.003906 230.851562 228.003906 230.722656 227.910156 C 229.945312 227.371094 229.375 227.234375 228.441406 227.246094 C 228.3125 227.246094 228.179688 227.246094 228.046875 227.242188 C 227.617188 227.238281 227.183594 227.242188 226.753906 227.242188 C 226.441406 227.242188 226.128906 227.242188 225.816406 227.238281 C 224.964844 227.234375 224.117188 227.234375 223.265625 227.234375 C 222.355469 227.238281 221.449219 227.234375 220.542969 227.230469 C 218.796875 227.222656 217.046875 227.222656 215.296875 227.222656 C 213.292969 227.222656 211.285156 227.214844 209.28125 227.210938 C 204.960938 227.199219 200.644531 227.195312 196.328125 227.195312 C 194.707031 227.191406 193.085938 227.191406 191.464844 227.1875 C 185.589844 227.183594 179.710938 227.183594 173.835938 227.191406 Z M 48.734375 227.183594 C 45.375 227.179688 42.015625 227.179688 38.65625 227.179688 C 36.664062 227.183594 34.675781 227.183594 32.683594 227.175781 C 30.964844 227.171875 29.246094 227.171875 27.523438 227.175781 C 26.632812 227.175781 25.742188 227.175781 24.847656 227.171875 C 24.023438 227.167969 23.195312 227.167969 22.367188 227.175781 C 22.066406 227.175781 21.769531 227.171875 21.46875 227.171875 C 19.457031 227.148438 18.277344 227.417969 16.691406 228.695312 C 16.515625 228.824219 16.34375 228.953125 16.167969 229.078125 C 13.804688 230.789062 11.738281 232.929688 11.035156 235.855469 C 10.960938 236.328125 10.96875 236.789062 10.976562 237.265625 C 12.320312 237.296875 13.640625 237.183594 14.972656 237.0625 C 15.226562 237.039062 15.480469 237.019531 15.730469 236.996094 C 16.421875 236.933594 17.113281 236.871094 17.804688 236.8125 C 18.550781 236.746094 19.296875 236.679688 20.042969 236.613281 C 21.503906 236.484375 22.964844 236.355469 24.425781 236.222656 C 26.125 236.074219 27.828125 235.921875 29.527344 235.769531 C 32.5625 235.5 35.59375 235.230469 38.628906 234.960938 C 41.574219 234.699219 44.519531 234.4375 47.464844 234.175781 C 47.644531 234.160156 47.828125 234.144531 48.015625 234.128906 C 48.195312 234.113281 48.375 234.097656 48.5625 234.082031 C 51.914062 233.78125 55.269531 233.484375 58.621094 233.1875 C 59.804688 233.082031 60.992188 232.976562 62.175781 232.871094 C 63.621094 232.742188 65.066406 232.617188 66.511719 232.488281 C 67.25 232.421875 67.984375 232.355469 68.722656 232.289062 C 69.398438 232.230469 70.070312 232.171875 70.746094 232.109375 C 70.992188 232.089844 71.234375 232.066406 71.480469 232.046875 C 71.808594 232.015625 72.140625 231.988281 72.472656 231.957031 C 72.65625 231.941406 72.84375 231.925781 73.03125 231.90625 C 73.503906 231.855469 73.96875 231.78125 74.4375 231.703125 C 74.4375 230.214844 74.4375 228.726562 74.4375 227.191406 C 70.808594 227.1875 67.183594 227.179688 63.554688 227.183594 C 63.4375 227.183594 63.324219 227.183594 63.203125 227.183594 C 62.078125 227.1875 60.957031 227.1875 59.835938 227.1875 C 56.136719 227.191406 52.433594 227.191406 48.734375 227.183594 Z M 48.734375 227.183594 "/>
<path style=" stroke:none;fill-rule:nonzero;fill:rgb(0%,52.941179%,71.372551%);fill-opacity:1;" d="M 121.652344 281.472656 C 127.957031 281.472656 134.257812 281.472656 140.75 281.472656 C 141.964844 285.636719 141.964844 285.636719 142.519531 287.65625 C 142.582031 287.882812 142.644531 288.113281 142.707031 288.339844 C 142.835938 288.8125 142.964844 289.289062 143.09375 289.761719 C 143.253906 290.351562 143.417969 290.941406 143.578125 291.53125 C 146.21875 301.15625 146.21875 301.15625 146.75 303.847656 C 146.789062 304.058594 146.832031 304.269531 146.875 304.480469 C 147.167969 305.945312 147.40625 307.414062 147.59375 308.898438 C 147.636719 309.414062 147.636719 309.414062 147.820312 309.738281 C 147.839844 309.605469 147.859375 309.472656 147.882812 309.332031 C 148.285156 306.691406 148.742188 304.070312 149.359375 301.46875 C 149.386719 301.367188 149.410156 301.261719 149.433594 301.15625 C 150.558594 296.386719 152.011719 291.691406 153.402344 286.996094 C 153.941406 285.175781 154.480469 283.351562 155.039062 281.472656 C 161.339844 281.472656 167.640625 281.472656 174.136719 281.472656 C 175.613281 291.128906 175.613281 291.128906 176.144531 294.601562 C 176.160156 294.71875 176.179688 294.835938 176.199219 294.957031 C 177.324219 302.34375 178.441406 309.734375 179.554688 317.121094 C 179.753906 318.445312 179.957031 319.765625 180.15625 321.089844 C 180.402344 322.71875 180.648438 324.351562 180.894531 325.980469 C 181.023438 326.828125 181.148438 327.675781 181.277344 328.519531 C 181.394531 329.304688 181.515625 330.085938 181.632812 330.867188 C 181.675781 331.15625 181.71875 331.441406 181.761719 331.726562 C 181.820312 332.113281 181.878906 332.5 181.9375 332.890625 C 181.953125 333.003906 181.972656 333.113281 181.988281 333.230469 C 182.070312 333.78125 182.105469 334.289062 182.105469 334.851562 C 176.148438 334.851562 170.195312 334.851562 164.058594 334.851562 C 163.542969 330.699219 163.542969 330.699219 163.402344 329.390625 C 163.386719 329.238281 163.371094 329.082031 163.355469 328.925781 C 163.300781 328.429688 163.25 327.929688 163.195312 327.433594 C 163.160156 327.074219 163.121094 326.71875 163.082031 326.359375 C 163.003906 325.609375 162.925781 324.859375 162.84375 324.109375 C 162.765625 323.359375 162.6875 322.609375 162.609375 321.859375 C 162.035156 316.472656 161.515625 311.078125 161.050781 305.679688 C 161.015625 305.863281 161.015625 305.863281 160.980469 306.050781 C 160.933594 306.292969 160.933594 306.292969 160.886719 306.539062 C 160.855469 306.695312 160.824219 306.855469 160.792969 307.019531 C 159.585938 313.214844 157.628906 319.269531 155.890625 325.332031 C 155.4375 326.90625 154.988281 328.484375 154.542969 330.0625 C 154.496094 330.230469 154.449219 330.394531 154.402344 330.566406 C 154.191406 331.316406 153.980469 332.066406 153.773438 332.816406 C 153.703125 333.070312 153.628906 333.324219 153.558594 333.578125 C 153.527344 333.691406 153.496094 333.804688 153.464844 333.921875 C 153.25 334.683594 153.25 334.683594 153.082031 334.851562 C 152.742188 334.863281 152.398438 334.867188 152.058594 334.867188 C 151.898438 334.867188 151.898438 334.867188 151.734375 334.867188 C 151.378906 334.867188 151.023438 334.867188 150.667969 334.863281 C 150.421875 334.863281 150.175781 334.863281 149.929688 334.863281 C 149.28125 334.863281 148.632812 334.863281 147.984375 334.859375 C 147.324219 334.859375 146.660156 334.859375 146 334.855469 C 144.703125 334.855469 143.402344 334.851562 142.105469 334.851562 C 141.679688 333.78125 141.367188 332.6875 141.050781 331.585938 C 140.992188 331.378906 140.933594 331.171875 140.875 330.964844 C 140.710938 330.402344 140.554688 329.84375 140.394531 329.28125 C 140.257812 328.808594 140.125 328.339844 139.988281 327.867188 C 139.671875 326.75 139.351562 325.636719 139.035156 324.519531 C 138.710938 323.378906 138.386719 322.238281 138.058594 321.097656 C 137.777344 320.113281 137.496094 319.125 137.214844 318.140625 C 137.046875 317.554688 136.878906 316.96875 136.710938 316.382812 C 135.699219 312.847656 134.761719 309.304688 134.136719 305.679688 C 133.976562 307.117188 133.828125 308.550781 133.710938 309.992188 C 133.699219 310.113281 133.6875 310.238281 133.675781 310.367188 C 133.65625 310.632812 133.632812 310.894531 133.613281 311.15625 C 133.25 315.492188 132.789062 319.8125 132.328125 324.136719 C 132.238281 324.984375 132.148438 325.832031 132.058594 326.679688 C 131.960938 327.609375 131.859375 328.539062 131.761719 329.46875 C 131.71875 329.859375 131.679688 330.25 131.636719 330.636719 C 131.582031 331.179688 131.523438 331.71875 131.464844 332.257812 C 131.449219 332.414062 131.429688 332.574219 131.414062 332.738281 C 131.398438 332.886719 131.382812 333.03125 131.367188 333.183594 C 131.351562 333.308594 131.339844 333.4375 131.324219 333.566406 C 131.273438 333.996094 131.199219 334.421875 131.128906 334.851562 C 125.171875 334.851562 119.21875 334.851562 113.082031 334.851562 C 113.25 332.820312 113.25 332.820312 113.410156 331.851562 C 113.429688 331.746094 113.445312 331.640625 113.464844 331.53125 C 113.519531 331.175781 113.578125 330.824219 113.636719 330.472656 C 113.679688 330.21875 113.722656 329.960938 113.761719 329.703125 C 113.875 329.007812 113.992188 328.308594 114.105469 327.613281 C 114.230469 326.867188 114.351562 326.117188 114.472656 325.371094 C 114.683594 324.089844 114.894531 322.808594 115.105469 321.53125 C 115.433594 319.527344 115.761719 317.527344 116.089844 315.527344 C 116.117188 315.359375 116.144531 315.195312 116.171875 315.023438 C 116.28125 314.351562 116.390625 313.679688 116.5 313.003906 C 116.667969 311.992188 116.832031 310.976562 117 309.964844 C 117.714844 305.609375 118.421875 301.253906 119.128906 296.898438 C 119.148438 296.769531 119.171875 296.644531 119.191406 296.511719 C 119.574219 294.136719 119.960938 291.761719 120.34375 289.386719 C 120.480469 288.53125 120.621094 287.675781 120.757812 286.820312 C 120.867188 286.148438 120.972656 285.480469 121.082031 284.8125 C 121.136719 284.476562 121.191406 284.136719 121.246094 283.800781 C 121.269531 283.652344 121.292969 283.5 121.320312 283.34375 C 121.339844 283.207031 121.363281 283.070312 121.386719 282.925781 C 121.40625 282.808594 121.425781 282.691406 121.445312 282.566406 C 121.507812 282.203125 121.582031 281.835938 121.652344 281.472656 Z M 121.652344 281.472656 "/>
<path style=" stroke:none;fill-rule:nonzero;fill:rgb(0%,52.941179%,71.372551%);fill-opacity:1;" d="M 26.464844 281.472656 C 32.667969 281.472656 38.871094 281.472656 45.261719 281.472656 C 45.269531 283.683594 45.277344 285.894531 45.285156 288.171875 C 45.289062 289.574219 45.296875 290.976562 45.300781 292.378906 C 45.3125 294.605469 45.320312 296.828125 45.328125 299.054688 C 45.332031 300.675781 45.335938 302.292969 45.34375 303.914062 C 45.347656 304.773438 45.351562 305.628906 45.355469 306.488281 C 45.355469 307.296875 45.359375 308.105469 45.363281 308.914062 C 45.363281 309.207031 45.367188 309.503906 45.367188 309.796875 C 45.316406 313.929688 45.316406 313.929688 47.207031 317.441406 C 48.34375 318.410156 49.855469 318.402344 51.277344 318.308594 C 52.300781 318.121094 53.246094 317.800781 53.917969 316.96875 C 55.523438 314.582031 55.359375 311.484375 55.371094 308.730469 C 55.371094 308.433594 55.371094 308.136719 55.375 307.839844 C 55.378906 307.035156 55.382812 306.230469 55.382812 305.425781 C 55.386719 304.582031 55.390625 303.738281 55.394531 302.894531 C 55.402344 301.300781 55.410156 299.707031 55.417969 298.113281 C 55.425781 295.960938 55.433594 293.804688 55.445312 291.648438 C 55.460938 288.257812 55.472656 284.863281 55.488281 281.472656 C 61.691406 281.472656 67.894531 281.472656 74.285156 281.472656 C 74.296875 289.121094 74.296875 289.121094 74.300781 292.34375 C 74.300781 294.566406 74.304688 296.785156 74.308594 299.003906 C 74.3125 300.621094 74.3125 302.238281 74.3125 303.855469 C 74.3125 304.710938 74.316406 305.5625 74.316406 306.417969 C 74.335938 314.574219 74.320312 322.300781 68.40625 328.5625 C 67.085938 329.875 65.53125 330.933594 63.910156 331.84375 C 63.820312 331.890625 63.734375 331.941406 63.640625 331.992188 C 61.101562 333.398438 58.339844 334.210938 55.488281 334.699219 C 55.300781 334.734375 55.113281 334.765625 54.921875 334.800781 C 49.554688 335.605469 43.421875 335.074219 38.496094 332.746094 C 38.386719 332.691406 38.277344 332.640625 38.164062 332.585938 C 33.335938 330.265625 29.53125 326.523438 27.707031 321.441406 C 27.429688 320.554688 27.222656 319.660156 27.039062 318.75 C 27.003906 318.582031 27.003906 318.582031 26.96875 318.40625 C 26.484375 315.785156 26.421875 313.113281 26.433594 310.457031 C 26.433594 310.136719 26.433594 309.816406 26.433594 309.5 C 26.433594 308.644531 26.433594 307.789062 26.4375 306.9375 C 26.4375 306.039062 26.4375 305.140625 26.4375 304.246094 C 26.4375 302.550781 26.441406 300.855469 26.445312 299.164062 C 26.449219 296.871094 26.449219 294.578125 26.453125 292.285156 C 26.453125 288.679688 26.460938 285.078125 26.464844 281.472656 Z M 26.464844 281.472656 "/>
<path style=" stroke:none;fill-rule:nonzero;fill:rgb(0%,52.941179%,71.372551%);fill-opacity:1;" d="M 217.894531 283.878906 C 218.265625 285.648438 218.566406 287.425781 218.851562 289.210938 C 218.898438 289.5 218.945312 289.792969 218.988281 290.082031 C 219.085938 290.6875 219.183594 291.292969 219.28125 291.898438 C 219.402344 292.671875 219.527344 293.445312 219.652344 294.21875 C 219.746094 294.820312 219.84375 295.417969 219.9375 296.015625 C 219.984375 296.300781 220.027344 296.585938 220.074219 296.871094 C 220.140625 297.269531 220.203125 297.667969 220.265625 298.066406 C 220.285156 298.183594 220.304688 298.300781 220.324219 298.417969 C 220.425781 299.09375 220.46875 299.734375 220.449219 300.417969 C 220.300781 300.34375 220.152344 300.265625 220 300.191406 C 212.003906 296.140625 212.003906 296.140625 203.335938 295.785156 C 202.492188 296.101562 201.953125 296.480469 201.570312 297.324219 C 201.484375 298.007812 201.535156 298.21875 201.953125 298.761719 C 204.132812 300.503906 207.195312 300.90625 209.839844 301.5 C 214.503906 302.546875 218.800781 304.050781 221.515625 308.273438 C 222.964844 310.644531 223.519531 313.011719 223.503906 315.773438 C 223.503906 315.929688 223.503906 315.929688 223.503906 316.085938 C 223.496094 317.628906 223.429688 319.078125 223.007812 320.566406 C 222.957031 320.75 222.910156 320.929688 222.859375 321.121094 C 221.425781 325.886719 217.882812 329.578125 213.59375 331.960938 C 211.363281 333.140625 208.933594 333.90625 206.464844 334.398438 C 206.34375 334.421875 206.222656 334.449219 206.097656 334.472656 C 200.625 335.519531 194.707031 334.855469 189.25 334.023438 C 189.148438 334.007812 189.046875 333.992188 188.941406 333.976562 C 188.652344 333.933594 188.367188 333.886719 188.078125 333.839844 C 187.914062 333.8125 187.753906 333.785156 187.585938 333.761719 C 187.160156 333.667969 186.769531 333.554688 186.359375 333.414062 C 186.238281 333.375 186.117188 333.332031 185.992188 333.289062 C 185.855469 333.242188 185.855469 333.242188 185.714844 333.195312 C 185.359375 330.875 185.007812 328.550781 184.65625 326.226562 C 184.492188 325.148438 184.328125 324.070312 184.164062 322.992188 C 184.019531 322.054688 183.878906 321.113281 183.734375 320.171875 C 183.660156 319.675781 183.585938 319.179688 183.507812 318.679688 C 183.425781 318.125 183.339844 317.570312 183.257812 317.015625 C 183.21875 316.765625 183.21875 316.765625 183.179688 316.511719 C 183.15625 316.363281 183.132812 316.210938 183.109375 316.054688 C 183.089844 315.921875 183.070312 315.792969 183.050781 315.65625 C 183.007812 315.304688 183.007812 315.304688 183.007812 314.703125 C 183.523438 314.902344 184.015625 315.125 184.507812 315.378906 C 186.601562 316.4375 188.726562 317.34375 190.921875 318.167969 C 191.046875 318.21875 191.171875 318.265625 191.300781 318.3125 C 193.359375 319.09375 195.527344 319.863281 197.746094 319.964844 C 197.871094 319.972656 198 319.980469 198.128906 319.988281 C 199.53125 320.035156 201.003906 319.839844 202.105469 318.910156 C 202.550781 318.449219 202.679688 318.050781 202.707031 317.40625 C 202.425781 316.507812 201.855469 316.042969 201.050781 315.605469 C 199.398438 314.882812 197.652344 314.542969 195.894531 314.183594 C 192.09375 313.410156 188.703125 312.285156 185.714844 309.738281 C 185.613281 309.652344 185.511719 309.566406 185.40625 309.480469 C 183.289062 307.519531 181.882812 304.425781 181.667969 301.558594 C 181.660156 301.367188 181.660156 301.367188 181.652344 301.167969 C 181.640625 300.882812 181.640625 300.882812 181.628906 300.589844 C 181.5 295.746094 183.015625 291.378906 186.347656 287.84375 C 190.171875 283.925781 195.523438 281.960938 200.902344 281.472656 C 201.070312 281.457031 201.234375 281.4375 201.40625 281.421875 C 207.023438 280.9375 212.578125 282.105469 217.894531 283.878906 Z M 217.894531 283.878906 "/>
<path style=" stroke:none;fill-rule:nonzero;fill:rgb(0%,52.941179%,71.372551%);fill-opacity:1;" d="M 78.046875 281.472656 C 91.144531 281.472656 104.246094 281.472656 117.746094 281.472656 C 117.398438 284.234375 117.398438 284.234375 117.230469 285.269531 C 117.199219 285.449219 117.199219 285.449219 117.171875 285.636719 C 117.109375 286.015625 117.046875 286.398438 116.988281 286.777344 C 116.949219 287.015625 116.910156 287.253906 116.871094 287.496094 C 116.730469 288.371094 116.589844 289.242188 116.449219 290.117188 C 116.132812 292.078125 115.816406 294.039062 115.488281 296.058594 C 109.929688 296.058594 104.371094 296.058594 98.648438 296.058594 C 98.648438 298.042969 98.648438 300.027344 98.648438 302.070312 C 103.855469 302.070312 109.066406 302.070312 114.4375 302.070312 C 114.347656 303.042969 114.261719 303.992188 114.105469 304.949219 C 114.078125 305.117188 114.078125 305.117188 114.050781 305.285156 C 113.996094 305.644531 113.9375 306 113.882812 306.359375 C 113.839844 306.613281 113.800781 306.863281 113.761719 307.117188 C 113.679688 307.640625 113.59375 308.167969 113.511719 308.691406 C 113.40625 309.363281 113.296875 310.035156 113.191406 310.707031 C 113.089844 311.351562 112.988281 311.992188 112.886719 312.636719 C 112.867188 312.757812 112.847656 312.882812 112.828125 313.007812 C 112.773438 313.351562 112.714844 313.699219 112.660156 314.042969 C 112.644531 314.144531 112.628906 314.246094 112.613281 314.351562 C 112.53125 314.871094 112.433594 315.386719 112.332031 315.90625 C 107.816406 315.90625 103.300781 315.90625 98.648438 315.90625 C 98.648438 322.207031 98.648438 328.507812 98.648438 335 C 91.847656 335 85.050781 335 78.046875 335 C 78.046875 317.335938 78.046875 299.671875 78.046875 281.472656 Z M 78.046875 281.472656 "/>
<path style=" stroke:none;fill-rule:nonzero;fill:rgb(0%,52.941179%,71.372551%);fill-opacity:1;" d="M 123.308594 7.066406 C 124.996094 7.066406 126.683594 7.066406 128.421875 7.066406 C 128.421875 81.246094 128.421875 155.425781 128.421875 231.855469 C 126.734375 231.855469 125.046875 231.855469 123.308594 231.855469 C 123.308594 157.675781 123.308594 83.496094 123.308594 7.066406 Z M 123.308594 7.066406 "/>
<path style=" stroke:none;fill-rule:nonzero;fill:rgb(0%,52.941179%,71.372551%);fill-opacity:1;" d="M 59.792969 160.6875 C 60.804688 161.3125 61.480469 162.160156 61.777344 163.3125 C 62.039062 164.582031 62.175781 165.8125 62.226562 167.113281 C 62.410156 176.25 62.410156 176.25 66.316406 184.039062 C 66.84375 184.46875 67.265625 184.542969 67.945312 184.566406 C 68.652344 184.402344 69.085938 184.023438 69.476562 183.429688 C 70.921875 180.410156 70.875 177.914062 70.207031 174.675781 C 70.097656 174.128906 70.046875 173.625 70.074219 173.0625 C 70.558594 172.941406 70.882812 172.882812 71.363281 173.035156 C 73.269531 174.746094 73.226562 178.519531 73.382812 180.882812 C 73.425781 181.75 73.441406 182.617188 73.449219 183.484375 C 73.449219 183.585938 73.453125 183.691406 73.453125 183.796875 C 73.492188 186.269531 72.875 188.726562 71.15625 190.582031 C 69.886719 191.738281 68.230469 192.257812 66.515625 192.195312 C 64.453125 191.980469 62.65625 191.410156 61.050781 190.054688 C 61.058594 190.222656 61.0625 190.394531 61.066406 190.570312 C 61.066406 191.273438 60.957031 191.933594 60.808594 192.621094 C 60.769531 192.804688 60.769531 192.804688 60.726562 192.996094 C 60.203125 195.300781 59.226562 197.753906 57.292969 199.226562 C 55.789062 200.117188 54.402344 200.640625 52.648438 200.625 C 52.53125 200.625 52.414062 200.625 52.289062 200.625 C 50.796875 200.59375 49.558594 200.226562 48.421875 199.226562 C 43.203125 193.75 42.410156 182.855469 41.421875 175.652344 C 41.375 175.332031 41.328125 175.011719 41.273438 174.695312 C 41.082031 173.515625 40.90625 171.90625 41.484375 170.828125 C 42.167969 169.972656 43.328125 169.734375 44.359375 169.605469 C 44.886719 169.578125 45.414062 169.570312 45.941406 169.566406 C 46.148438 169.5625 46.148438 169.5625 46.359375 169.558594 C 47.15625 169.554688 47.753906 169.578125 48.421875 170.054688 C 49.074219 170.832031 49.136719 171.496094 49.191406 172.46875 C 49.203125 172.617188 49.214844 172.765625 49.222656 172.917969 C 49.246094 173.238281 49.269531 173.558594 49.289062 173.878906 C 49.335938 174.558594 49.386719 175.238281 49.4375 175.914062 C 49.460938 176.261719 49.488281 176.609375 49.511719 176.957031 C 49.769531 180.539062 50.105469 184.113281 50.601562 187.667969 C 50.617188 187.773438 50.628906 187.878906 50.644531 187.984375 C 50.960938 190.253906 51.429688 192.367188 52.480469 194.414062 C 53.457031 193.292969 53.691406 191.917969 53.84375 190.476562 C 53.855469 190.359375 53.867188 190.242188 53.878906 190.125 C 54.023438 188.734375 54.085938 187.34375 54.144531 185.945312 C 54.15625 185.6875 54.167969 185.429688 54.179688 185.171875 C 54.199219 184.785156 54.214844 184.394531 54.234375 184.003906 C 54.261719 183.375 54.289062 182.746094 54.328125 182.113281 C 54.460938 179.753906 54.472656 177.390625 54.472656 175.027344 C 54.472656 174.800781 54.472656 174.574219 54.472656 174.347656 C 54.480469 171.316406 54.441406 168.320312 54.082031 165.308594 C 53.769531 162.5625 53.769531 162.5625 54.214844 161.886719 C 54.519531 161.59375 54.820312 161.394531 55.1875 161.183594 C 55.308594 161.109375 55.429688 161.035156 55.558594 160.957031 C 56.820312 160.273438 58.457031 160.070312 59.792969 160.6875 Z M 59.792969 160.6875 "/>
<path style=" stroke:none;fill-rule:nonzero;fill:rgb(0%,52.941179%,71.372551%);fill-opacity:1;" d="M 35.710938 177.84375 C 36.90625 178.886719 37.71875 180.449219 38.503906 181.8125 C 38.574219 181.929688 38.644531 182.050781 38.714844 182.171875 C 40 184.445312 40.984375 186.785156 41.765625 189.273438 C 41.828125 189.46875 41.828125 189.46875 41.894531 189.667969 C 42.519531 191.628906 43.101562 193.589844 43.457031 195.617188 C 43.492188 195.8125 43.527344 196.007812 43.5625 196.207031 C 44.136719 199.882812 44.453125 204.351562 42.347656 207.617188 C 41.132812 209.257812 39.042969 209.957031 37.101562 210.285156 C 34.785156 210.5625 32.636719 210.394531 30.660156 209.042969 C 29.089844 207.796875 27.816406 206.34375 26.765625 204.640625 C 26.707031 204.542969 26.648438 204.449219 26.585938 204.351562 C 23.035156 198.652344 20.316406 191.117188 21.804688 184.339844 C 22.480469 181.644531 23.628906 179.105469 26.101562 177.609375 C 29.191406 176.039062 32.800781 175.734375 35.710938 177.84375 Z M 28.570312 186.144531 C 27.414062 191.539062 29.253906 197.609375 32.03125 202.234375 C 33.886719 205.105469 33.886719 205.105469 36.644531 206.914062 C 37.148438 206.929688 37.148438 206.929688 37.554688 206.679688 C 38.828125 205.230469 38.519531 202.988281 38.421875 201.207031 C 38.105469 196.78125 36.707031 191.390625 33.382812 188.25 C 31.199219 186.378906 31.199219 186.378906 28.570312 186.144531 Z M 28.570312 186.144531 "/>
<path style=" stroke:none;fill-rule:nonzero;fill:rgb(0%,52.941179%,71.372551%);fill-opacity:1;" d="M 5.050781 180.976562 C 7.105469 182.140625 7.714844 184.125 8.394531 186.246094 C 10.207031 191.921875 13.964844 195.570312 18.917969 198.640625 C 20.148438 199.40625 21.355469 200.214844 22.554688 201.03125 C 22.703125 201.128906 22.703125 201.128906 22.855469 201.230469 C 25.632812 203.109375 27.773438 205.425781 28.46875 208.800781 C 28.875 211.519531 28.132812 213.960938 26.617188 216.207031 C 24.996094 218.328125 22.726562 219.765625 20.132812 220.390625 C 18.597656 220.523438 17.175781 220.390625 15.941406 219.375 C 14.820312 218.269531 14.207031 217.097656 13.914062 215.546875 C 13.984375 215.164062 13.984375 215.164062 14.40625 214.859375 C 14.59375 214.753906 14.789062 214.652344 14.980469 214.554688 C 16.242188 213.851562 17.289062 212.984375 18.347656 212.007812 C 18.460938 211.902344 18.574219 211.796875 18.691406 211.6875 C 19.4375 210.972656 20.101562 210.25 20.167969 209.175781 C 20.109375 208.152344 19.34375 207.351562 18.636719 206.679688 C 18.550781 206.59375 18.464844 206.511719 18.375 206.421875 C 17.601562 205.679688 16.789062 204.996094 15.941406 204.339844 C 15.78125 204.214844 15.625 204.089844 15.464844 203.964844 C 14.53125 203.230469 13.578125 202.550781 12.585938 201.902344 C 12.25 201.675781 11.925781 201.445312 11.605469 201.199219 C 10.683594 200.488281 9.695312 199.867188 8.722656 199.226562 C 8.574219 199.125 8.425781 199.027344 8.269531 198.925781 C 8.335938 199.105469 8.398438 199.285156 8.464844 199.46875 C 9.632812 202.816406 10.460938 206.246094 10.976562 209.75 C 10.996094 209.867188 11.011719 209.980469 11.03125 210.097656 C 11.550781 213.582031 11.898438 218.183594 9.816406 221.234375 C 9.410156 221.75 9.046875 222.027344 8.421875 222.222656 C 7.863281 222.234375 7.65625 222.125 7.21875 221.78125 C 6.859375 221.414062 6.859375 221.414062 6.617188 221.027344 C 6.675781 220.519531 6.902344 220.203125 7.199219 219.796875 C 9.191406 216.890625 8.382812 212.214844 7.777344 208.960938 C 7.164062 205.765625 6.429688 202.605469 5.59375 199.460938 C 5.539062 199.257812 5.539062 199.257812 5.484375 199.054688 C 5.382812 198.671875 5.28125 198.292969 5.175781 197.910156 C 5.144531 197.796875 5.117188 197.6875 5.085938 197.570312 C 4.816406 196.605469 4.496094 195.835938 3.742188 195.15625 C 1.5 192.980469 0.125 189.875 0 186.746094 C -0.0078125 186.589844 -0.015625 186.4375 -0.0234375 186.277344 C -0.0664062 184.675781 -0.0117188 182.484375 1.128906 181.234375 C 2.316406 180.3125 3.707031 180.359375 5.050781 180.976562 Z M 5.050781 180.976562 "/>
</g>
</svg>
