<?xml version="1.0" standalone="no"?>
<!DOCTYPE svg PUBLIC "-//W3C//DTD SVG 20010904//EN"
 "http://www.w3.org/TR/2001/REC-SVG-20010904/DTD/svg10.dtd">
<svg version="1.0" xmlns="http://www.w3.org/2000/svg"
 width="240" height="335" viewBox="0 0 1596.000000 2228.000000"
 preserveAspectRatio="xMidYMid meet">

<g transform="translate(0.000000,2228.000000) scale(0.100000,-0.100000)"
fill="#0087B6" stroke="none">
<path d="M9532 14569 l3 -7702 2265 -623 c1246 -343 2272 -627 2280 -631 16
-6 -140 -47 -325 -84 l-110 -22 -2227 678 -2228 679 0 7593 0 7593 -160 0
-160 0 2 -7591 3 -7591 2052 -737 c1128 -405 2054 -739 2058 -742 6 -7 -73
-20 -405 -69 -1952 -289 -4520 -365 -6785 -200 -511 38 -1004 87 -1465 146
-388 49 -715 100 -669 104 2 1 949 337 2104 748 l2100 748 3 7337 2 7337 -150
0 -150 0 0 -7335 0 -7335 -22 -10 c-13 -6 -1047 -318 -2298 -694 l-2275 -685
-210 45 c-115 24 -218 47 -229 52 -13 5 142 52 515 155 294 81 1337 370 2319
641 l1785 493 3 7211 2 7212 -250 0 -250 0 0 -7209 c0 -4720 -3 -7212 -10
-7216 -16 -10 -4653 -1137 -4681 -1138 -30 0 -359 103 -359 113 0 4 1056 236
2348 516 l2347 510 3 7212 2 7212 -250 0 -250 0 0 -7214 0 -7213 -57 -11 c-32
-6 -1066 -201 -2298 -433 l-2240 -421 -65 33 c-133 68 -321 209 -279 209 15 0
4512 616 4567 625 l32 6 0 7209 0 7210 -255 0 -255 0 0 -6549 0 -6550 -42 -6
c-24 -3 -144 -17 -268 -31 -1718 -193 -3049 -540 -3680 -959 -134 -89 -293
-244 -343 -335 -63 -116 -70 -155 -65 -399 4 -192 7 -222 26 -272 84 -215 354
-422 788 -608 1587 -676 5059 -1034 8509 -876 2924 134 5262 636 5885 1265
164 165 183 223 178 544 l-3 223 -40 79 c-52 105 -197 251 -345 349 -554 367
-1665 690 -3100 900 -200 29 -600 81 -857 110 l-53 6 0 6555 0 6554 -255 0
-255 0 0 -7209 0 -7209 33 -6 c17 -3 1058 -141 2311 -306 1254 -165 2281 -302
2284 -304 2 -3 1 -9 -2 -14 -13 -21 -156 -124 -236 -170 l-86 -49 -2199 398
c-1210 219 -2253 408 -2317 420 l-118 21 0 7214 0 7214 -255 0 -255 0 0 -7209
c0 -6858 1 -7210 18 -7215 9 -3 1075 -226 2367 -496 1293 -270 2359 -494 2369
-499 19 -7 -75 -44 -261 -102 l-72 -23 -2348 544 c-1291 298 -2376 549 -2410
557 l-63 15 0 7704 0 7704 -135 0 -135 0 2 -7701z m-4574 -6802 l-3 -94 -398
136 c-254 86 -391 138 -380 142 19 7 453 61 658 82 l120 12 3 -92 c1 -51 1
-135 0 -186z m6870 218 c413 -46 463 -53 442 -65 -22 -12 -696 -240 -709 -240
-8 0 -11 50 -11 165 l0 165 25 0 c14 0 128 -11 253 -25z m-7480 -242 l612
-138 0 -32 c0 -20 -5 -33 -12 -33 -20 0 -1420 299 -1425 304 -3 2 19 9 49 15
29 5 62 12 73 14 54 12 134 -3 703 -130z m8479 111 c54 -8 99 -17 101 -19 2
-2 -5 -6 -15 -9 -28 -8 -1339 -286 -1352 -286 -6 0 -11 15 -11 33 l0 33 578
131 c317 72 583 131 590 132 7 0 56 -6 109 -15z m-8881 -244 c522 -72 964
-133 982 -136 29 -6 32 -10 32 -40 0 -26 -4 -34 -17 -34 -30 0 -2216 279
-2220 283 -2 3 40 14 94 26 54 12 103 24 108 26 27 10 141 -4 1021 -125z
m9672 103 c73 -14 129 -29 125 -33 -7 -6 -2145 -281 -2180 -280 -14 0 -19 70
-5 71 10 0 1916 266 1922 268 3 0 65 -11 138 -26z m-10050 -283 c761 -50 1385
-90 1387 -90 3 0 5 -16 5 -37 l0 -36 -112 6 c-62 3 -783 29 -1603 58 -819 29
-1493 55 -1498 59 -13 11 344 129 393 129 25 1 667 -40 1428 -89z m11030 28
c135 -44 181 -63 167 -69 -11 -4 -686 -30 -1500 -58 -814 -29 -1533 -55 -1597
-58 l-118 -6 0 36 c0 28 4 37 18 38 9 0 618 40 1352 88 734 49 1370 89 1413
90 70 1 96 -5 265 -61z m-9638 -438 c0 -108 -4 -160 -11 -160 -6 0 -950 -83
-2098 -185 -1147 -102 -2097 -185 -2110 -185 -23 0 -24 2 -18 59 21 200 167
384 447 567 l75 49 1330 5 c732 3 1567 6 1858 8 l527 2 0 -160z m10215 145
l119 -4 101 -68 c180 -121 317 -278 365 -419 21 -61 37 -164 26 -164 -4 0
-951 79 -2106 175 -1155 96 -2106 175 -2115 175 -13 0 -15 23 -15 160 l0 159
1753 -4 c963 -3 1806 -7 1872 -10z"/>
<path d="M8210 14335 l0 -7465 160 0 160 0 0 7465 0 7465 -160 0 -160 0 0
-7465z"/>
<path d="M3712 11564 c-121 -60 -125 -73 -96 -319 21 -182 29 -700 15 -975 -7
-124 -16 -317 -21 -430 -15 -305 -37 -421 -95 -488 -23 -27 -24 -27 -39 -7
-28 37 -75 170 -95 270 -11 55 -32 192 -45 305 -27 213 -86 866 -86 939 0 57
-24 100 -65 117 -43 18 -198 18 -281 1 -119 -25 -154 -69 -154 -192 1 -44 5
-100 10 -125 5 -25 16 -101 25 -170 26 -197 81 -488 135 -705 119 -485 245
-735 405 -806 61 -27 204 -37 287 -20 223 47 372 242 423 556 27 164 18 150
70 111 66 -51 142 -83 239 -102 74 -15 99 -16 161 -6 179 28 281 129 345 341
21 69 22 86 17 280 -7 257 -33 446 -76 537 -32 69 -68 100 -102 89 -18 -6 -20
-12 -16 -39 3 -17 15 -84 26 -149 33 -190 25 -296 -36 -439 -53 -125 -138
-177 -221 -134 -73 39 -169 174 -202 286 -42 144 -94 524 -111 815 -16 282
-38 372 -106 437 -42 41 -94 58 -171 58 -59 0 -80 -5 -140 -36z"/>
<path d="M1951 10529 c-137 -27 -256 -90 -329 -175 -255 -297 -238 -875 43
-1449 141 -288 295 -475 459 -556 79 -39 93 -42 184 -47 230 -11 436 74 517
212 83 142 105 396 59 701 -33 220 -154 607 -254 810 -73 150 -176 318 -236
384 -95 106 -271 154 -443 120z m124 -667 c161 -89 230 -161 320 -341 47 -95
108 -277 136 -411 19 -87 23 -138 23 -295 1 -168 -1 -195 -18 -233 -19 -42
-57 -72 -91 -72 -46 0 -113 52 -197 152 -221 263 -351 607 -365 959 -7 194 1
277 30 289 33 14 69 3 162 -48z"/>
<path d="M122 10243 c-75 -37 -107 -131 -106 -318 1 -254 78 -447 243 -613 59
-59 61 -61 95 -183 142 -504 216 -896 216 -1137 0 -173 -27 -277 -97 -369 -23
-31 -23 -34 -7 -58 17 -26 62 -55 85 -55 27 0 88 53 113 100 126 232 91 751
-91 1332 -20 65 -34 120 -31 123 5 5 101 -59 348 -231 225 -156 438 -355 460
-431 11 -36 11 -49 -4 -87 -24 -62 -193 -224 -315 -301 l-93 -59 7 -35 c19
-105 97 -216 180 -256 108 -54 226 -42 385 37 106 53 238 178 293 278 62 114
80 181 81 305 0 95 -4 121 -27 189 -36 102 -62 146 -147 243 -72 84 -178 161
-550 398 -327 210 -517 455 -630 815 -61 193 -123 274 -239 315 -56 19 -127
19 -169 -2z"/>
<path d="M1770 2503 c0 -1213 5 -1314 77 -1563 87 -303 334 -584 654 -745 363
-183 858 -236 1298 -139 365 81 666 266 867 533 159 212 227 424 254 796 6 82
10 565 10 1158 l0 1017 -614 0 -615 0 -4 -1047 c-4 -1146 -3 -1119 -63 -1254
-30 -66 -75 -111 -143 -143 -37 -16 -66 -21 -147 -21 -92 0 -105 2 -159 30
-104 53 -152 146 -175 335 -6 52 -10 468 -10 1092 l0 1008 -615 0 -615 0 0
-1057z"/>
<path d="M5200 1785 l0 -1775 675 0 675 0 0 635 0 635 455 0 c250 0 455 2 455
4 0 2 32 201 70 442 39 241 70 441 70 446 0 4 -236 8 -525 8 l-525 0 0 210 0
210 560 0 c308 0 560 2 560 4 0 2 34 216 75 475 41 260 75 474 75 477 0 2
-589 4 -1310 4 l-1310 0 0 -1775z"/>
<path d="M8100 3551 c0 -5 -128 -797 -285 -1761 -157 -963 -285 -1755 -285
-1761 0 -5 228 -9 589 -9 l589 0 6 37 c16 101 148 1411 166 1643 11 146 24
288 28 315 l7 50 18 -110 c33 -203 76 -366 299 -1152 l222 -783 361 0 360 0
218 768 c219 775 270 970 303 1168 l19 109 7 -70 c4 -38 17 -182 28 -320 20
-238 154 -1554 165 -1622 l6 -33 591 0 591 0 -6 38 c-25 157 -527 3484 -527
3492 0 7 -209 10 -623 10 l-624 0 -146 -502 c-203 -694 -267 -953 -317 -1275
-11 -70 -20 -131 -20 -135 0 -5 -6 -8 -13 -8 -9 0 -18 39 -30 129 -22 161 -66
376 -122 596 -34 134 -298 1101 -321 1178 -5 16 -44 17 -630 17 -366 0 -624
-4 -624 -9z"/>
<path d="M13386 3549 c-234 -22 -458 -84 -639 -176 -440 -225 -680 -626 -654
-1093 8 -137 36 -243 94 -359 84 -169 258 -324 461 -411 115 -50 192 -72 399
-115 337 -70 443 -127 443 -237 0 -156 -232 -217 -537 -139 -161 41 -589 213
-714 286 -58 34 -61 35 -56 13 3 -13 45 -287 93 -610 l88 -587 50 -11 c325
-70 867 -109 1137 -81 393 41 724 187 964 426 204 203 310 430 335 718 17 195
-10 357 -85 512 -77 160 -220 304 -387 390 -121 63 -192 86 -436 140 -410 92
-552 160 -552 263 0 112 126 171 335 158 55 -3 137 -15 182 -26 108 -26 488
-168 631 -235 62 -30 112 -48 112 -42 0 7 -38 246 -83 532 l-83 520 -50 18
c-88 33 -346 96 -499 123 -171 29 -391 38 -549 23z"/>
</g>
</svg>
